<?xml version="1.0" standalone="no"?>
<!DOCTYPE svg PUBLIC "-//W3C//DTD SVG 20010904//EN"
 "http://www.w3.org/TR/2001/REC-SVG-20010904/DTD/svg10.dtd">
<svg version="1.0" xmlns="http://www.w3.org/2000/svg"
 width="800.000000pt" height="533.000000pt" viewBox="0 0 800.000000 533.000000"
 preserveAspectRatio="xMidYMid meet">

<g transform="translate(0.000000,533.000000) scale(0.100000,-0.100000)"
fill="#000000" stroke="none">
<path d="M0 2665 l0 -2665 4000 0 4000 0 0 2665 0 2665 -4000 0 -4000 0 0
-2665z m3477 1530 c7 -2 15 0 18 5 4 7 13 6 25 0 13 -7 21 -7 25 0 5 8 11 8
19 1 10 -8 53 -15 124 -20 6 -1 12 -8 12 -17 0 -10 -6 -15 -17 -13 -11 3 -31
-9 -50 -28 -17 -18 -28 -33 -24 -33 4 0 6 -13 3 -30 -2 -16 -10 -30 -17 -30
-8 0 -27 -12 -45 -26 -23 -20 -28 -29 -20 -39 15 -18 -4 -29 -35 -21 -16 4
-30 0 -42 -13 -10 -10 -39 -21 -67 -25 -27 -3 -60 -13 -74 -22 -19 -12 -30
-13 -55 -5 -17 6 -28 8 -24 5 14 -15 -36 -48 -80 -54 -41 -4 -51 -11 -81 -49
-31 -42 -37 -45 -87 -47 -49 -3 -68 4 -70 26 -3 19 -20 58 -32 72 -18 20 -1
34 39 29 15 -1 37 3 49 9 19 11 21 10 16 -4 -4 -9 -2 -16 2 -16 5 0 16 20 24
45 9 25 14 45 12 45 -7 0 -80 -44 -98 -58 -9 -9 -20 -12 -24 -8 -4 4 -3 10 3
14 6 4 10 26 9 50 -1 24 2 45 7 48 7 5 30 52 41 84 3 8 5 -11 4 -42 -1 -32 -5
-58 -9 -58 -10 0 -41 -60 -35 -67 8 -7 88 37 93 52 4 10 11 12 22 6 10 -5 21
-9 25 -9 4 0 37 -8 73 -18 52 -14 70 -15 85 -6 16 10 19 9 19 -4 0 -13 3 -14
15 -4 8 7 21 10 28 7 16 -6 110 46 100 56 -3 4 1 7 11 7 15 0 15 2 1 30 -9 18
-21 28 -27 24 -7 -5 -8 -2 -3 6 6 9 16 3 39 -24 22 -26 35 -34 45 -27 8 5 10
14 6 21 -6 9 -4 11 4 6 12 -8 51 19 51 35 0 4 -14 10 -31 14 -17 4 -28 9 -25
12 3 3 20 0 37 -6 31 -11 35 -9 70 25 29 29 35 39 26 49 -8 9 -16 10 -24 4 -7
-6 -13 -6 -17 0 -3 5 0 12 6 14 7 3 -24 6 -70 6 -70 1 -88 -2 -115 -21 -18
-13 -34 -24 -37 -26 -2 -2 2 -7 10 -12 9 -6 10 -10 3 -10 -23 0 -26 24 -5 38
28 19 28 32 0 33 -21 1 -21 2 -3 6 11 3 23 8 28 12 7 7 91 4 114 -4z m-267
-10 c0 -8 -4 -15 -10 -15 -5 0 -10 7 -10 15 0 8 5 15 10 15 6 0 10 -7 10 -15z
m-32 -16 c2 -5 12 -9 22 -9 10 0 22 -5 26 -12 5 -8 0 -9 -17 -5 -13 4 -37 7
-52 7 -17 0 -26 4 -22 11 10 15 -130 5 -149 -10 -9 -8 -16 -8 -20 -2 -7 11
-46 11 -46 0 0 -4 -8 -9 -17 -12 -59 -18 -128 -47 -128 -54 0 -4 20 -11 45
-14 l45 -6 -55 -1 c-108 -3 -108 32 0 59 84 22 112 39 61 39 -18 0 -41 -4 -51
-10 -10 -5 -35 -12 -55 -14 -21 -3 -41 -9 -44 -14 -3 -6 -25 -15 -48 -21 -23
-6 -49 -18 -57 -26 -8 -8 -24 -15 -35 -15 -12 0 -21 -6 -21 -14 0 -11 -20 -15
-95 -15 -78 -1 -95 2 -95 14 0 8 -4 15 -10 15 -5 0 -10 -7 -10 -15 0 -10 -9
-14 -25 -13 -21 2 -22 4 -11 18 21 25 31 44 18 36 -7 -4 -12 -2 -12 4 0 19 29
23 45 6 18 -17 70 -23 60 -6 -3 6 -12 10 -19 10 -8 0 -19 6 -25 14 -16 18 13
36 67 41 20 1 37 4 37 5 0 5 110 10 293 13 106 3 195 7 198 10 9 9 199 -4 202
-14z m1170 -3 c17 -17 -23 -23 -85 -12 -36 6 -42 5 -47 -12 -4 -11 -15 -27
-26 -37 -19 -18 -21 -18 -43 2 -12 11 -30 23 -40 27 -34 12 -11 29 42 32 29 1
56 6 59 9 8 8 131 -1 140 -9z m1207 -12 c55 -10 65 -15 65 -34 0 -10 6 -20 13
-23 6 -3 -3 -5 -20 -4 -24 0 -33 5 -33 17 0 13 -12 19 -47 24 -77 12 -85 14
-97 26 -11 12 37 9 119 -6z m-2245 -23 c0 -5 -6 -13 -13 -19 -10 -8 -13 -6
-14 9 -1 10 5 19 13 19 8 0 14 -4 14 -9z m996 -4 c7 -7 -4 -27 -15 -27 -5 0
-19 9 -32 20 l-24 19 33 -3 c18 -2 35 -6 38 -9z m744 -7 c0 -5 -7 -10 -16 -10
-41 0 -131 -35 -158 -62 -30 -30 -45 -26 -46 14 0 21 56 53 65 38 3 -6 11 -10
16 -10 6 0 8 4 5 9 -6 10 59 25 72 17 4 -3 14 -1 22 5 20 12 40 11 40 -1z
m-2744 -12 c-3 -24 -17 -38 -29 -31 -7 4 -16 8 -22 9 -5 0 -16 2 -22 2 -7 1
-13 7 -13 13 0 8 12 10 35 6 19 -3 37 -1 40 4 8 13 14 11 11 -3z m3114 -18 c9
-6 10 -10 3 -10 -6 0 -18 -3 -27 -6 -11 -4 -16 -1 -16 10 0 18 17 21 40 6z
m325 -4 c11 -2 26 -4 33 -5 6 0 12 -5 12 -11 0 -15 -56 -12 -72 3 -7 8 -19 12
-25 10 -7 -3 -20 1 -30 7 -14 9 -10 10 22 6 22 -3 49 -8 60 -10z m-3595 0 c0
-2 -11 -6 -25 -8 -14 -3 -25 -1 -25 3 0 5 11 9 25 9 14 0 25 -2 25 -4z m3186
-7 c8 -14 -18 -31 -30 -19 -9 9 0 30 14 30 5 0 12 -5 16 -11z m-3302 -30 c26
-20 64 -20 51 1 -3 5 1 10 9 10 9 0 16 -4 16 -10 0 -5 8 -10 18 -11 44 -2 -50
-20 -107 -20 -71 0 -85 6 -50 21 20 8 18 9 -16 5 l-40 -4 40 13 c52 19 48 19
79 -5z m3116 1 c8 -16 8 -20 -2 -18 -7 2 -12 -3 -10 -9 3 -17 -4 -16 -33 3
-32 21 -32 32 3 37 15 2 28 5 29 6 1 0 7 -8 13 -19z m675 10 c3 -5 -1 -10 -9
-10 -9 0 -16 5 -16 10 0 6 4 10 9 10 6 0 13 -4 16 -10z m-3590 -10 c-3 -5 1
-10 9 -10 8 0 18 5 21 10 9 15 25 12 19 -4 -5 -14 -74 -28 -74 -15 0 4 -6 7
-12 6 -62 -2 -64 17 -2 21 29 1 43 -1 39 -8z m3039 4 c25 -9 19 -24 -9 -24
-24 0 -32 10 -18 23 8 8 8 8 27 1z m604 -12 c2 -7 -2 -10 -12 -6 -9 3 -16 11
-16 16 0 13 23 5 28 -10z m-1050 -12 c7 -12 18 -20 25 -19 7 2 30 -3 52 -9 26
-8 41 -8 43 -2 6 16 21 12 45 -11 l22 -20 -28 10 c-19 8 -34 8 -47 1 -23 -12
-33 -13 -26 -1 6 9 -48 21 -95 21 -30 0 -44 21 -26 39 15 15 20 14 35 -9z
m1520 13 c-10 -2 -26 -2 -35 0 -10 3 -2 5 17 5 19 0 27 -2 18 -5z m-1118 -7
c0 -15 -14 -35 -21 -30 -15 9 -10 34 6 34 8 0 15 -2 15 -4z m160 -16 c20 -16
22 -20 8 -20 -10 0 -18 5 -18 10 0 6 -7 10 -15 10 -8 0 -15 5 -15 10 0 15 12
12 40 -10z m740 12 c0 -13 -12 -22 -22 -16 -10 6 -1 24 13 24 5 0 9 -4 9 -8z
m277 2 c-3 -3 -12 -4 -19 -1 -8 3 -5 6 6 6 11 1 17 -2 13 -5z m-382 -14 c3 -5
-1 -10 -9 -10 -9 0 -16 5 -16 10 0 6 4 10 9 10 6 0 13 -4 16 -10z m475 -6 c0
-2 -11 -4 -25 -4 -14 0 -25 4 -25 9 0 4 11 6 25 3 14 -2 25 -6 25 -8z m-4615
-9 c11 -2 40 -9 64 -15 31 -7 47 -8 55 0 5 5 19 10 31 10 16 0 20 -6 19 -33
-1 -19 -4 -39 -7 -44 -8 -13 17 -24 37 -17 8 3 17 1 21 -5 4 -7 -14 -11 -54
-11 -34 0 -61 -4 -61 -9 0 -4 -11 -6 -25 -4 -13 3 -23 10 -22 17 1 6 -11 12
-27 14 l-29 4 28 14 c33 17 38 17 29 2 -4 -7 -3 -8 5 -4 6 4 9 12 6 17 -4 5
-1 9 5 9 6 0 8 4 5 10 -4 6 -15 2 -27 -10 -23 -21 -68 -35 -112 -33 -38 2 -43
9 -21 33 22 24 18 25 -28 5 -45 -19 -46 -19 -40 3 6 22 82 61 108 55 11 -2 29
-6 40 -8z m397 -5 c-36 -22 -53 -51 -33 -58 9 -3 9 -7 0 -18 -10 -12 -9 -13 5
-8 9 3 16 1 16 -5 0 -17 31 -13 52 6 24 21 23 33 -2 33 -41 0 -19 46 29 60 28
8 31 7 21 -5 -10 -12 -9 -15 8 -15 15 0 20 5 16 15 -9 23 173 16 190 -8 8 -9
27 -22 44 -28 22 -7 29 -15 25 -28 -5 -21 30 -51 59 -51 26 0 22 -19 -7 -32
-14 -6 -25 -15 -25 -20 0 -5 -16 0 -36 12 -27 18 -38 20 -47 11 -9 -10 -6 -17
15 -34 l27 -22 -20 -25 c-11 -14 -18 -19 -17 -11 2 8 -5 17 -14 19 -14 3 -16
-1 -11 -14 5 -14 3 -16 -11 -11 -10 4 -30 10 -44 13 -15 4 -38 17 -52 30 -18
17 -29 20 -40 14 -20 -13 -60 -13 -60 0 0 11 48 25 57 17 3 -4 18 0 33 8 15 8
29 12 32 10 9 -9 6 40 -4 58 -9 17 -8 19 6 14 9 -4 16 -3 16 2 0 5 -27 9 -60
10 -49 1 -61 -2 -70 -18 -7 -14 -6 -21 3 -24 7 -3 5 -6 -5 -6 -10 -1 -18 -5
-18 -10 0 -13 -43 -10 -52 4 -5 6 -8 6 -8 -2 0 -7 -8 -13 -17 -13 -14 0 -14
-3 5 -20 12 -11 26 -20 32 -20 12 0 12 -3 4 -24 -3 -9 -10 -16 -16 -16 -5 0
-6 5 -3 10 4 7 -14 8 -52 5 l-58 -6 30 25 c36 31 27 47 -11 17 -16 -13 -41
-21 -63 -21 -21 0 -41 -4 -47 -9 -11 -11 -62 -26 -52 -16 4 5 3 14 -4 22 -9
11 -7 12 13 5 16 -6 35 -5 55 4 38 16 51 42 26 51 -21 8 -42 35 -36 45 3 5 12
8 21 8 13 0 13 -3 3 -15 -10 -13 -9 -15 9 -15 14 0 20 4 15 12 -4 6 -3 8 4 5
5 -4 18 -4 27 -1 13 5 14 9 4 15 -21 13 59 87 96 88 l30 1 -33 -20z m2823 10
c-3 -5 -2 -10 4 -10 6 0 17 -13 26 -30 9 -16 11 -30 6 -30 -5 0 -12 11 -15 25
-4 17 -13 25 -27 25 -18 0 -19 2 -9 15 14 17 24 20 15 5z m962 4 c-3 -3 -12
-4 -19 -1 -8 3 -5 6 6 6 11 1 17 -2 13 -5z m-3871 -14 c9 0 12 -5 9 -11 -4 -6
-13 -8 -21 -5 -8 3 -13 0 -11 -7 1 -6 -8 -13 -20 -15 -17 -3 -23 2 -23 16 0
22 17 33 38 26 8 -2 20 -4 28 -4z m4169 0 c3 -6 -1 -7 -9 -4 -18 7 -21 14 -7
14 6 0 13 -4 16 -10z m-3370 -11 c11 -17 -1 -21 -15 -4 -8 9 -8 15 -2 15 6 0
14 -5 17 -11z m3469 -4 c-4 -8 -10 -12 -15 -9 -14 8 -10 24 6 24 9 0 12 -6 9
-15z m-2090 -13 c50 2 79 -1 84 -9 4 -6 34 -14 67 -18 58 -7 94 -20 105 -36 3
-4 18 -5 33 -2 22 4 25 8 16 20 -14 16 2 40 20 29 19 -12 6 -43 -29 -72 -25
-20 -29 -22 -16 -6 26 30 4 28 -33 -4 -17 -14 -35 -23 -41 -19 -17 10 -11 23
8 18 10 -2 24 3 31 11 14 17 11 19 -31 16 -16 -1 -28 3 -28 8 0 6 -19 15 -42
20 -24 6 -53 14 -65 17 -19 6 -21 4 -17 -17 2 -12 1 -16 -2 -8 -14 33 -25 38
-55 30 -16 -5 -27 -5 -25 -1 3 4 -14 7 -37 8 l-42 2 29 -16 c25 -13 42 -19 66
-22 3 -1 7 -11 7 -23 2 -15 -1 -18 -6 -10 -10 17 -45 -33 -35 -51 5 -9 4 -9
-5 -1 -10 9 -10 17 -2 32 8 15 8 22 -2 25 -7 3 -5 6 5 6 9 1 20 6 24 13 4 7 3
8 -4 4 -6 -3 -28 3 -49 14 -38 20 -94 30 -64 11 19 -12 23 -39 5 -37 -7 1 -17
5 -20 9 -13 13 -30 7 -60 -18 -27 -24 -28 -25 -7 -25 12 0 26 -7 31 -16 6 -11
16 -13 35 -9 15 4 27 11 27 17 0 5 -6 6 -12 2 -7 -4 -11 -5 -8 -1 3 3 8 5 11
4 4 -1 17 7 30 18 l24 20 -17 -21 c-10 -11 -18 -25 -18 -30 0 -6 -16 -16 -36
-23 -43 -15 -51 -33 -31 -65 13 -20 14 -29 4 -50 -7 -14 -20 -26 -29 -26 -10
0 -18 -7 -18 -15 0 -12 -47 -45 -64 -45 -2 0 -9 13 -14 29 -10 29 -12 30 -65
24 l-54 -6 -7 47 c-8 53 -2 70 24 63 12 -3 20 2 23 14 3 11 14 19 27 19 11 0
19 4 16 9 -3 5 1 12 10 15 10 4 13 2 8 -7 -4 -6 6 3 23 21 17 17 36 32 42 32
6 0 10 5 9 12 -2 7 3 13 10 14 6 1 16 2 21 3 5 0 8 9 7 19 0 9 6 17 14 17 8 0
21 4 28 9 7 4 19 5 27 2 7 -2 19 2 26 10 8 10 15 11 24 4 8 -6 46 -10 89 -8z
m1966 8 c13 -8 13 -10 -2 -10 -9 0 -20 5 -23 10 -8 13 5 13 25 0z m-1580 -15
c0 -9 10 -15 23 -16 19 -1 20 -2 3 -6 -19 -5 -18 -6 5 -20 16 -10 18 -12 4 -8
-43 15 -55 17 -55 9 0 -5 -10 -20 -21 -34 l-21 -25 17 28 c9 17 14 39 11 51
-3 13 -3 26 1 30 12 12 33 6 33 -9z m506 8 c-16 -4 -15 -7 10 -24 18 -12 23
-19 13 -19 -8 0 -26 11 -39 25 l-23 25 29 -1 c19 -1 23 -3 10 -6z m1144 3 c0
-3 -4 -8 -10 -11 -5 -3 -10 -1 -10 4 0 6 5 11 10 11 6 0 10 -2 10 -4z m-1195
-44 c-2 -2 -17 -1 -32 3 -27 6 -27 7 -8 21 18 13 21 13 32 -2 7 -10 11 -20 8
-22z m1455 18 c0 -5 -7 -7 -15 -4 -8 4 -12 10 -9 15 6 11 24 2 24 -11z m-1823
4 c-3 -3 -12 -4 -19 -1 -8 3 -5 6 6 6 11 1 17 -2 13 -5z m1770 0 c-3 -3 -12
-4 -19 -1 -8 3 -5 6 6 6 11 1 17 -2 13 -5z m287 -35 c-3 -5 -10 -7 -15 -3 -5
3 -7 10 -3 15 3 5 10 7 15 3 5 -3 7 -10 3 -15z m-5649 1 c3 -5 -1 -10 -10 -10
-9 0 -13 5 -10 10 3 6 8 10 10 10 2 0 7 -4 10 -10z m340 0 c3 -5 1 -10 -4 -10
-6 0 -11 5 -11 10 0 6 2 10 4 10 3 0 8 -4 11 -10z m95 -11 c0 -5 -7 -9 -15 -9
-15 0 -20 12 -9 23 8 8 24 -1 24 -14z m-185 1 c3 -5 1 -10 -4 -10 -6 0 -11 5
-11 10 0 6 2 10 4 10 3 0 8 -4 11 -10z m3744 -6 c3 -3 0 -9 -5 -14 -7 -7 -17
-3 -30 11 -19 22 -19 22 6 14 14 -4 27 -9 29 -11z m1386 6 c3 -5 1 -10 -4 -10
-6 0 -11 5 -11 10 0 6 2 10 4 10 3 0 8 -4 11 -10z m-5565 -10 c0 -5 -4 -10
-10 -10 -5 0 -10 5 -10 10 0 6 5 10 10 10 6 0 10 -4 10 -10z m745 0 c17 -7 15
-9 -12 -9 -18 -1 -33 4 -33 9 0 12 17 12 45 0z m4350 -8 c-3 -3 -11 0 -18 7
-9 10 -8 11 6 5 10 -3 15 -9 12 -12z m865 8 c0 -5 -2 -10 -4 -10 -3 0 -8 5
-11 10 -3 6 -1 10 4 10 6 0 11 -4 11 -10z m-4550 -10 c0 -5 -2 -10 -4 -10 -3
0 -8 5 -11 10 -3 6 -1 10 4 10 6 0 11 -4 11 -10z m4415 -20 c-5 -8 -11 -8 -17
-2 -6 6 -7 16 -3 22 5 8 11 8 17 2 6 -6 7 -16 3 -22z m-5915 4 c0 -8 -4 -12
-10 -9 -5 3 -10 10 -10 16 0 5 5 9 10 9 6 0 10 -7 10 -16z m949 12 c-11 -9
-69 -15 -64 -6 3 6 20 10 37 10 17 0 29 -2 27 -4z m1711 -20 c0 -7 -13 -25
-30 -41 -16 -16 -30 -35 -30 -42 0 -17 -15 -16 -69 3 -68 23 -81 33 -81 59 0
27 17 36 43 23 10 -5 26 -6 35 -2 9 4 28 6 42 5 14 -1 37 2 50 7 28 11 40 7
40 -12z m900 -21 c0 -23 -16 -17 -28 10 -11 24 -10 25 8 15 11 -6 20 -17 20
-25z m150 -5 c-6 -11 -13 -20 -16 -20 -2 0 0 9 6 20 6 11 13 20 16 20 2 0 0
-9 -6 -20z m2430 16 c0 -3 -4 -8 -10 -11 -5 -3 -10 -1 -10 4 0 6 5 11 10 11 6
0 10 -2 10 -4z m-2679 -71 c3 3 6 -2 6 -10 0 -11 -12 -15 -41 -15 -23 0 -58
-3 -78 -6 -33 -6 -39 -4 -49 20 -11 23 -10 30 7 47 20 19 20 19 19 -3 0 -13
-4 -29 -8 -36 -6 -9 4 -11 43 -8 56 4 74 19 59 47 -19 36 -8 33 14 -4 13 -21
25 -35 28 -32z m789 55 c0 -5 -5 -10 -11 -10 -5 0 -7 5 -4 10 3 6 8 10 11 10
2 0 4 -4 4 -10z m2010 -10 c0 -5 -5 -10 -11 -10 -5 0 -7 5 -4 10 3 6 8 10 11
10 2 0 4 -4 4 -10z m-6322 -20 c-7 -11 -16 -20 -21 -20 -4 0 -3 9 3 20 6 11
15 20 20 20 6 0 5 -9 -2 -20z m3659 2 c-10 -10 -18 -29 -18 -43 -2 -23 -2 -23
-6 -1 -2 12 -11 22 -19 22 -37 0 -3 24 55 39 2 1 -3 -7 -12 -17z m1364 -5 c-1
-12 -15 -9 -19 4 -3 6 1 10 8 8 6 -3 11 -8 11 -12z m-1461 -29 c0 -19 -16 -5
-17 14 -2 18 0 20 7 8 5 -8 10 -18 10 -22z m2306 -5 c-10 -10 -19 5 -10 18 6
11 8 11 12 0 2 -7 1 -15 -2 -18z m-4496 7 c0 -5 -5 -10 -11 -10 -5 0 -7 5 -4
10 3 6 8 10 11 10 2 0 4 -4 4 -10z m148 -12 c17 -5 32 -16 32 -24 0 -8 5 -14
10 -14 18 0 10 -19 -11 -25 -24 -8 -21 -14 11 -20 13 -3 31 1 39 8 14 11 14
10 2 -5 -15 -20 -56 -24 -66 -8 -4 6 -11 8 -16 5 -14 -9 -11 2 7 19 13 14 14
16 0 16 -8 0 -18 5 -22 12 -5 7 -2 8 7 3 12 -7 12 -6 1 6 -7 8 -24 14 -37 14
-18 1 -22 -4 -19 -20 3 -18 2 -19 -10 -3 -12 16 -14 16 -26 -7 -7 -14 -19 -25
-27 -25 -19 0 -16 13 7 28 12 7 18 17 15 23 -4 5 -1 16 5 24 12 15 31 14 98
-7z m2212 8 c0 -2 -8 -10 -17 -17 -16 -13 -17 -12 -4 4 13 16 21 21 21 13z
m2279 -11 c16 0 28 -25 13 -25 -5 0 -20 9 -33 21 -13 11 -17 17 -9 13 8 -5 21
-9 29 -9z m141 5 c0 -5 -7 -10 -16 -10 -8 0 -12 5 -9 10 3 6 10 10 16 10 5 0
9 -4 9 -10z m-6204 -19 c0 -11 -8 -22 -18 -24 -14 -4 -18 1 -18 19 0 16 6 24
18 24 11 0 18 -7 18 -19z m81 -3 c-3 -8 -6 -5 -6 6 -1 11 2 17 5 13 3 -3 4
-12 1 -19z m6343 13 c0 -6 -4 -13 -10 -16 -5 -3 -10 1 -10 9 0 9 5 16 10 16 6
0 10 -4 10 -9z m-2782 -44 c13 4 14 3 3 -5 -7 -5 -10 -15 -7 -21 4 -6 5 -11 2
-11 -3 0 -13 14 -22 31 -12 25 -18 29 -25 18 -5 -8 -9 -9 -9 -3 0 5 6 16 12
22 10 10 14 8 21 -12 6 -17 13 -23 25 -19z m-3401 -24 c-4 -3 -17 -1 -29 5
-13 6 -17 11 -10 11 10 1 10 6 1 24 -10 19 -8 18 16 -6 15 -15 25 -30 22 -34z
m5648 38 c-3 -6 -11 -8 -17 -5 -6 4 -5 9 3 15 16 10 23 4 14 -10z m-2335 -5
c0 3 5 2 10 -1 8 -5 7 -11 -1 -21 -9 -11 -15 -12 -26 -2 -8 6 -13 7 -11 2 4
-12 -37 -53 -82 -82 l-35 -22 45 5 c44 4 44 4 10 -5 -60 -18 -64 -18 -110 -20
l-45 -2 63 -20 c75 -25 76 -36 1 -14 -63 19 -93 21 -83 4 4 -6 3 -8 -4 -4 -7
4 -10 -6 -7 -31 1 -21 3 -44 4 -50 1 -9 19 -11 64 -8 l62 4 -62 -11 c-49 -8
-63 -15 -63 -28 0 -25 44 -18 148 25 46 19 89 32 93 29 5 -3 9 -3 9 0 0 3 -17
14 -37 25 -45 24 -37 27 14 6 l36 -15 65 65 c36 36 67 65 69 65 2 0 3 -7 3
-15 0 -8 -6 -15 -12 -15 -7 0 -37 -24 -66 -54 l-54 -54 36 -40 c28 -30 33 -41
22 -45 -9 -4 -13 -1 -10 7 3 7 -5 21 -16 31 l-21 19 2 -52 c2 -29 7 -52 12
-52 5 0 7 7 3 15 -4 11 2 14 24 11 16 -2 28 0 25 3 -2 4 5 38 16 77 17 63 19
47 3 -41 -6 -30 -4 -34 9 -29 9 3 15 11 13 17 -1 7 -1 9 1 5 8 -14 23 -9 23 7
0 14 12 20 34 16 5 -1 17 6 27 15 15 14 17 20 7 33 -10 13 -10 14 2 3 12 -10
21 -5 55 25 l40 38 -40 -44 c-22 -24 -32 -41 -23 -38 10 3 20 1 24 -5 5 -7 2
-8 -7 -3 -8 5 -11 4 -6 0 4 -5 17 -10 29 -12 21 -3 21 -3 2 19 -10 13 -12 17
-4 11 8 -7 22 -13 32 -13 10 0 18 -1 18 -3 0 -18 45 -116 61 -134 13 -12 20
-23 18 -23 -3 0 -25 21 -50 47 -24 26 -38 44 -31 39 6 -4 12 -2 12 3 0 6 -9
11 -20 11 -11 0 -20 -4 -20 -10 0 -5 -7 -10 -15 -10 -28 0 -10 -25 45 -62 30
-21 51 -38 47 -38 -4 0 -37 20 -73 44 l-65 44 30 22 c30 21 33 40 8 40 -7 0
-6 -4 3 -10 8 -5 10 -10 4 -10 -6 0 -19 9 -29 20 -20 22 -49 27 -42 8 2 -7 9
-13 15 -13 5 0 14 -4 19 -9 5 -5 3 -6 -4 -2 -7 4 -13 2 -13 -3 0 -6 -9 -11
-19 -11 -11 0 -23 -5 -26 -11 -4 -6 -13 -8 -20 -5 -25 9 -85 -15 -102 -40 -11
-17 -18 -21 -23 -14 -5 9 -9 9 -14 1 -4 -6 -3 -11 1 -11 5 0 9 -16 9 -35 0
-19 -4 -35 -8 -35 -4 0 -8 -4 -8 -10 0 -15 133 41 146 62 3 5 18 -4 33 -19 14
-16 35 -34 46 -41 11 -7 1 -3 -22 8 l-43 20 6 -32 c15 -88 10 -85 87 -56 26
10 27 12 10 30 -16 18 -16 18 11 4 26 -13 32 -13 65 5 21 11 37 15 39 9 2 -6
9 -8 15 -4 7 3 2 -3 -9 -13 -18 -16 -20 -23 -11 -39 9 -17 9 -18 -6 -5 -15 12
-20 11 -37 -4 -25 -22 -25 -33 -2 -59 13 -16 13 -18 1 -8 -9 6 -19 9 -22 5 -4
-3 -7 1 -7 10 0 10 -5 14 -15 11 -8 -4 -13 -10 -10 -14 3 -5 1 -11 -5 -15 -12
-7 -30 34 -23 53 8 20 -26 14 -44 -8 -19 -22 -49 -26 -55 -8 -4 10 -10 10 -30
1 -22 -10 -27 -9 -32 4 -4 11 -15 14 -33 10 -21 -4 -34 1 -54 22 -14 15 -24
36 -23 47 5 28 -24 47 -43 28 -8 -7 -23 -14 -34 -14 -28 0 -23 -13 12 -34 22
-13 28 -21 19 -26 -7 -5 -19 -6 -26 -3 -9 3 -11 -2 -7 -17 5 -18 2 -21 -17
-18 -14 2 -24 11 -26 23 -2 11 -17 32 -33 47 -18 16 -28 33 -25 42 3 8 -6 22
-21 33 -15 10 -43 32 -63 49 -32 27 -64 36 -77 22 -8 -7 47 -68 56 -63 5 4 9
2 9 -4 0 -6 18 -20 40 -31 45 -23 54 -44 14 -34 -23 6 -25 4 -20 -14 8 -23
-36 -78 -54 -67 -6 3 -8 11 -5 16 3 5 -1 6 -9 3 -8 -3 -23 -1 -33 5 -15 9 -11
10 22 11 76 0 86 37 20 76 -25 14 -43 30 -39 35 3 5 -1 6 -8 4 -8 -3 -24 5
-37 18 -19 21 -26 23 -47 13 -13 -6 -24 -14 -24 -18 0 -4 -15 -2 -32 3 -50 14
-58 11 -58 -20 0 -24 -6 -31 -43 -45 -23 -9 -48 -16 -55 -16 -6 0 -9 -6 -6
-14 9 -24 -85 -88 -118 -81 -27 4 -38 -8 -18 -20 6 -4 51 -1 100 6 76 11 89
15 85 30 -8 25 19 43 36 23 10 -12 10 -17 1 -23 -19 -12 23 -45 48 -38 11 3
18 1 14 -4 -3 -5 -1 -9 5 -9 5 0 12 6 14 13 3 7 6 5 6 -5 1 -10 5 -18 11 -18
5 0 7 7 4 15 -4 10 -1 14 7 12 8 -2 11 -2 6 0 -4 3 -5 8 -3 12 3 4 -18 4 -45
1 -59 -8 -73 2 -24 18 25 7 35 7 35 0 0 -6 8 -4 18 5 23 21 56 22 72 2 7 -8 9
-15 4 -15 -4 0 -3 -5 3 -11 9 -9 8 -18 -4 -36 -14 -21 -14 -26 -2 -34 8 -5 22
-6 32 -3 10 3 26 -1 35 -9 28 -24 82 -48 93 -41 6 3 19 -2 30 -12 26 -23 53
-28 45 -8 -4 10 -2 12 6 8 8 -5 9 -2 5 10 -4 10 -1 19 9 23 12 4 13 8 3 14
-10 6 -10 11 0 22 10 13 16 13 44 -1 18 -9 50 -16 72 -17 22 -1 40 -6 40 -12
0 -6 -18 -23 -40 -38 -40 -26 -40 -26 -13 -1 32 28 27 34 -34 42 l-43 6 -23
-48 c-18 -36 -26 -44 -33 -33 -5 8 -9 10 -9 5 0 -5 -7 -2 -16 5 -14 11 -18 10
-30 -6 -13 -17 -14 -17 -14 -1 0 9 -5 14 -10 11 -6 -4 -9 -1 -8 6 2 6 -3 14
-11 17 -8 3 -11 0 -7 -7 5 -7 1 -9 -9 -4 -11 4 -13 8 -6 13 7 4 1 11 -15 19
-24 11 -26 10 -21 -9 3 -11 1 -18 -4 -14 -5 3 -9 12 -9 20 0 13 -4 12 -32 -1
l-33 -16 25 22 25 22 -27 -5 c-17 -3 -25 -1 -21 5 4 6 0 8 -11 4 -10 -4 -15
-3 -11 3 3 6 1 10 -4 10 -6 0 -11 -4 -11 -9 0 -5 -7 -12 -16 -15 -8 -3 -12 -2
-9 4 3 5 1 18 -4 27 -6 10 -11 15 -11 10 0 -4 -23 4 -51 19 -38 19 -50 22 -46
11 4 -12 0 -14 -19 -11 -13 2 -35 -3 -49 -12 -14 -9 -25 -13 -25 -10 0 3 15
16 33 27 l32 20 -30 -5 c-38 -7 -126 -19 -143 -19 -7 0 -1 -13 14 -28 26 -27
28 -27 55 -13 46 23 34 10 -22 -25 -53 -33 -83 -44 -37 -13 l28 18 -31 23 -30
22 -42 -37 c-44 -40 -77 -78 -77 -88 0 -4 16 1 36 9 47 20 57 19 19 -2 -28
-15 -28 -17 -10 -25 15 -6 12 -7 -12 -4 -26 4 -33 1 -39 -17 -5 -12 -7 -25 -6
-29 1 -5 -2 -7 -7 -5 -5 1 -30 -25 -56 -58 -64 -82 -69 -93 -53 -112 12 -15
11 -15 -9 -5 -30 16 -33 15 -34 -10 -1 -21 -2 -21 -6 -3 -3 11 -11 24 -19 28
-16 9 -19 37 -5 37 6 0 43 41 83 91 40 50 104 122 142 160 37 38 65 69 62 69
-3 0 -1 11 4 25 7 19 6 25 -5 25 -7 0 -16 8 -19 18 -7 23 -2 99 7 108 4 4 2
13 -4 20 -12 15 -4 34 16 34 16 0 26 -24 15 -36 -5 -5 -11 -27 -14 -49 -5 -36
-5 -37 4 -10 5 16 17 36 27 42 9 7 12 13 5 13 -9 0 -9 6 0 25 13 28 25 31 47
11 9 -8 32 -17 52 -21 l37 -7 -8 44 c-12 63 -18 74 -48 88 l-27 13 43 11 c34
9 41 13 31 24 -11 10 -10 12 2 12 8 0 20 -5 26 -11 8 -8 14 -6 22 10 7 12 17
18 26 14 9 -3 26 6 42 21 14 14 29 26 33 26 4 0 7 8 6 18 0 9 6 17 14 18 8 0
27 6 41 13 22 11 25 19 25 54 -1 43 14 56 43 38 12 -7 12 -13 3 -24 -14 -17
-6 -28 16 -20 11 5 14 2 9 -10 -4 -12 -2 -14 11 -10 9 3 22 10 27 14 6 4 17 3
25 -2 11 -8 12 -12 3 -16 -15 -6 -18 -43 -3 -43 10 0 35 41 31 50 -1 3 4 9 13
15 11 7 19 5 28 -8 10 -13 21 -16 44 -11 31 6 35 13 35 66 0 18 6 29 19 33 11
4 20 12 20 20 0 16 44 23 83 13 15 -3 27 -4 27 -2z m2220 5 c0 -5 -7 -11 -15
-15 -9 -3 -15 0 -15 9 0 8 7 15 15 15 8 0 15 -4 15 -9z m-4039 -23 c2 -64 6
-81 23 -93 10 -8 15 -18 12 -23 -3 -5 3 -12 14 -15 12 -3 20 -14 20 -27 0 -19
-4 -22 -29 -18 -17 2 -28 1 -25 -3 6 -10 -49 -26 -116 -33 -39 -5 -51 -3 -40
4 8 5 27 10 41 10 43 0 89 12 89 22 0 6 -8 7 -17 4 -17 -6 -17 -5 -1 7 10 8
15 17 11 21 -4 4 -1 12 7 17 13 9 13 10 -1 6 -9 -3 -22 -2 -28 3 -10 6 -10 13
3 33 15 22 15 25 1 31 -9 3 -13 10 -10 16 3 5 2 10 -3 10 -5 0 -9 6 -9 14 0 8
6 12 14 9 8 -3 13 -2 12 3 -3 18 1 24 16 24 9 0 15 -10 16 -22z m-627 -3 c-4
-8 -10 -12 -15 -9 -11 6 -2 24 11 24 5 0 7 -7 4 -15z m1806 0 c-7 -8 -17 -15
-22 -15 -6 0 -5 7 2 15 7 8 17 15 22 15 6 0 5 -7 -2 -15z m795 5 c4 -6 11 -8
16 -5 5 4 6 -2 2 -11 -4 -11 -8 -13 -11 -6 -2 7 -10 12 -18 12 -8 0 -14 5 -14
10 0 13 17 13 25 0z m2425 -6 c0 -14 -3 -14 -15 -4 -8 7 -15 14 -15 16 0 2 7
4 15 4 8 0 15 -7 15 -16z m-6210 -3 c0 -12 -20 -25 -27 -18 -7 7 6 27 18 27 5
0 9 -4 9 -9z m170 1 c0 -13 -12 -22 -22 -16 -10 6 -1 24 13 24 5 0 9 -4 9 -8z
m2812 -22 c15 0 18 -4 14 -17 -7 -16 36 -90 61 -106 24 -15 15 -46 -14 -52
-53 -11 -118 -26 -138 -31 -17 -4 -16 -2 5 15 21 17 23 23 13 39 -10 17 -8 21
14 31 24 11 24 13 9 30 -9 10 -16 23 -16 29 0 7 -5 12 -11 12 -6 0 -9 9 -6 20
3 11 1 20 -5 20 -6 0 0 9 13 19 20 16 25 17 32 5 4 -8 17 -14 29 -14z m3139 3
c13 -16 12 -17 -3 -4 -10 7 -18 15 -18 17 0 8 8 3 21 -13z m-5716 -13 c3 -5 1
-10 -4 -10 -6 0 -11 5 -11 10 0 6 2 10 4 10 3 0 8 -4 11 -10z m855 0 c0 -5 -4
-10 -10 -10 -5 0 -10 5 -10 10 0 6 5 10 10 10 6 0 10 -4 10 -10z m3345 0 c3
-5 -1 -10 -9 -10 -9 0 -16 5 -16 10 0 6 4 10 9 10 6 0 13 -4 16 -10z m-3665
-14 c0 -11 -19 -15 -25 -6 -3 5 1 10 9 10 9 0 16 -2 16 -4z m701 -23 c13 -15
12 -15 -8 -4 -24 12 -29 21 -14 21 5 0 15 -7 22 -17z m2374 -23 c-5 -8 -11 -8
-17 -2 -6 6 -7 16 -3 22 5 8 11 8 17 2 6 -6 7 -16 3 -22z m-4014 -3 c-13 -13
-26 -3 -16 12 3 6 11 8 17 5 6 -4 6 -10 -1 -17z m6247 4 c3 -8 -1 -12 -9 -9
-7 2 -15 10 -17 17 -3 8 1 12 9 9 7 -2 15 -10 17 -17z m-4821 -8 c-9 -9 -20
-13 -24 -9 -4 4 -1 11 7 16 25 16 35 11 17 -7z m4549 -15 c3 -10 16 -21 29
-24 15 -4 22 -11 18 -20 -3 -8 0 -14 6 -14 16 0 13 -27 -3 -33 -10 -4 -13 0
-11 14 5 26 -31 63 -53 54 -9 -3 -13 -3 -9 1 3 4 -3 15 -15 26 l-21 18 26 -2
c16 -1 29 -10 33 -20z m-5588 0 c-6 -18 -28 -21 -28 -4 0 9 7 16 16 16 9 0 14
-5 12 -12z m2522 4 c0 -4 -4 -12 -9 -17 -5 -6 -11 -19 -13 -29 -2 -12 -18 -23
-48 -32 -58 -18 -78 -18 -62 -2 7 7 12 21 12 33 0 14 12 26 38 37 40 18 82 23
82 10z m433 -17 c-3 -9 -8 -14 -10 -11 -3 3 -2 9 2 15 9 16 15 13 8 -4z
m-1953 -5 c0 -5 -7 -10 -15 -10 -8 0 -15 5 -15 10 0 6 7 10 15 10 8 0 15 -4
15 -10z m2357 -27 c-3 -10 -5 -4 -5 12 0 17 2 24 5 18 2 -7 2 -21 0 -30z
m2113 -24 c0 -6 -4 -7 -10 -4 -5 3 -10 11 -10 16 0 6 5 7 10 4 6 -3 10 -11 10
-16z m394 -1 c-3 -4 -11 -5 -19 -1 -21 7 -19 12 4 10 11 0 18 -5 15 -9z
m-4408 -23 c-21 -32 -21 -35 10 -35 22 0 24 -3 15 -14 -9 -11 -9 -15 0 -18 19
-6 1 -28 -22 -28 -11 0 -17 5 -14 10 4 6 -12 10 -39 10 -25 0 -46 4 -46 8 0
16 88 90 109 92 2 0 -4 -11 -13 -25z m4384 -1 c0 -8 -5 -12 -10 -9 -6 4 -8 11
-5 16 9 14 15 11 15 -7z m-5878 -26 c-15 -15 -26 -4 -18 18 5 13 9 15 18 6 9
-9 9 -15 0 -24z m4733 12 c3 -5 -1 -10 -9 -10 -9 0 -16 5 -16 10 0 6 4 10 9
10 6 0 13 -4 16 -10z m-3375 -10 c0 -5 -7 -7 -15 -4 -8 4 -15 8 -15 10 0 2 7
4 15 4 8 0 15 -4 15 -10z m4237 -12 c-1 -13 -8 -29 -16 -37 -12 -13 -15 -12
-27 4 -21 29 -17 43 14 48 15 2 28 5 29 6 2 0 2 -9 0 -21z m58 11 c11 -17 0
-20 -21 -4 -17 13 -17 14 -2 15 9 0 20 -5 23 -11z m-4356 -5 c11 -3 11 -7 0
-20 -25 -30 29 -58 75 -39 13 6 17 4 15 -4 -5 -14 -168 -83 -180 -75 -4 2 -5
13 -2 23 4 17 -1 19 -41 19 -25 0 -44 -4 -40 -9 3 -5 1 -9 -3 -9 -13 0 -41
-53 -36 -67 3 -7 -1 -13 -8 -13 -33 0 -104 -46 -132 -87 -17 -23 -35 -43 -40
-43 -4 0 -6 -4 -3 -9 7 -11 -19 -33 -82 -66 -29 -16 -65 -40 -79 -54 -24 -24
-25 -24 -14 -3 8 14 8 22 1 22 -5 0 -10 -6 -11 -12 0 -7 -2 -26 -4 -42 -2 -16
0 -48 4 -73 7 -37 6 -45 -10 -53 -29 -16 -39 -12 -39 18 0 21 2 24 10 12 8
-13 10 -12 10 3 0 10 4 16 8 13 10 -6 9 19 -2 52 -11 34 -25 26 -21 -13 2 -19
-1 -35 -6 -35 -5 0 -9 16 -9 35 0 38 -2 40 -29 25 -13 -6 -24 -5 -37 6 -18 14
-17 15 14 11 17 -2 32 0 32 5 0 4 14 8 30 8 28 0 37 12 31 44 -1 5 10 6 25 3
20 -3 43 6 88 35 53 34 61 43 64 75 2 21 0 33 -6 29 -6 -3 -12 0 -14 7 -6 15
17 59 25 50 4 -4 16 3 26 14 13 14 16 24 9 31 -6 6 -1 8 16 5 14 -3 31 -11 37
-19 6 -8 16 -14 21 -14 6 0 5 7 -2 15 -10 12 -10 15 4 15 9 0 16 5 16 10 0 6
7 10 16 10 8 0 13 -4 10 -8 -3 -5 2 -9 10 -9 21 0 68 72 61 91 -4 10 -1 13 8
10 8 -3 16 3 20 16 6 18 9 19 23 8 9 -7 13 -8 9 -2 -7 13 31 48 55 49 10 1 20
4 23 7 7 6 36 7 54 2z m-1209 -38 c0 -3 -4 -8 -10 -11 -5 -3 -10 -1 -10 4 0 6
5 11 10 11 6 0 10 -2 10 -4z m5550 -22 c0 -6 -6 -17 -14 -23 -11 -9 -14 -7
-18 12 -3 17 0 23 14 23 10 0 18 -6 18 -12z m-5636 -27 c4 4 4 0 0 -10 -5 -15
-54 -26 -54 -12 0 15 26 32 36 24 6 -5 14 -6 18 -2z m3703 7 c-3 -3 -12 -4
-19 -1 -8 3 -5 6 6 6 11 1 17 -2 13 -5z m109 -5 c3 -6 0 -15 -7 -20 -14 -8
-32 9 -23 23 7 11 22 10 30 -3z m1949 -8 c3 -5 1 -12 -5 -16 -5 -3 -10 1 -10
9 0 18 6 21 15 7z m37 -6 c0 -5 -5 -11 -11 -13 -6 -2 -11 4 -11 13 0 9 5 15
11 13 6 -2 11 -8 11 -13z m-5013 -14 c9 -16 8 -18 -9 -14 -21 5 -25 15 -13 26
9 10 11 9 22 -12z m2706 9 c-3 -5 -19 -10 -35 -10 -16 0 -32 5 -35 10 -4 6 10
10 35 10 25 0 39 -4 35 -10z m2126 -12 c3 -26 -3 -42 -19 -54 -19 -14 -25 -46
-9 -56 9 -6 9 -8 0 -8 -6 0 -19 7 -28 16 -15 15 -14 18 5 31 16 11 20 22 16
39 -5 19 -2 24 11 24 15 0 16 2 3 10 -13 8 -12 10 3 10 9 0 18 -6 18 -12z
m-1930 -15 c13 -16 12 -17 -3 -4 -17 13 -22 21 -14 21 2 0 10 -8 17 -17z m221
3 c3 2 10 -2 17 -9 9 -12 7 -13 -14 -10 -13 3 -30 12 -37 21 -11 13 -10 14 8
4 12 -6 24 -9 26 -6z m1568 -40 c0 -5 -7 -3 -15 4 -8 7 -12 17 -9 22 7 10 24
-9 24 -26z m-5524 4 c0 -12 -4 -16 -9 -11 -5 5 -6 14 -3 20 10 15 12 14 12 -9z
m5571 3 c-14 -14 -19 -15 -29 -4 -7 8 -8 11 -3 8 6 -3 17 -2 25 4 23 14 26 11
7 -8z m-4687 -28 c14 -19 14 -19 -2 -6 -10 7 -18 18 -18 24 0 6 1 8 3 6 1 -2
9 -13 17 -24z m2930 -11 c20 1 27 -7 41 -49 10 -27 18 -46 19 -40 0 5 17 -8
39 -29 21 -21 41 -34 43 -29 3 4 3 2 2 -4 -2 -7 1 -13 7 -13 5 0 4 -6 -3 -13
-10 -12 -15 -10 -26 12 -22 43 -44 63 -53 49 -6 -9 -13 -1 -24 24 -8 21 -15
41 -15 46 0 16 -31 37 -38 26 -12 -16 -43 -16 -55 0 -7 8 -25 17 -42 19 -23 3
-20 4 14 6 36 1 42 4 37 19 -5 13 -2 12 12 -4 10 -12 29 -21 42 -20z m-3856
-9 c-3 -8 -12 -11 -20 -8 -15 5 -19 25 -7 36 10 11 32 -13 27 -28z m2951 -4
c-4 -54 -14 -69 -31 -46 -10 14 -11 22 -2 32 6 7 8 16 5 19 -6 7 13 33 25 34
3 0 5 -17 3 -39z m-2864 16 c-1 -12 -15 -9 -19 4 -3 6 1 10 8 8 6 -3 11 -8 11
-12z m139 -18 c0 -5 -7 -9 -15 -9 -15 0 -20 12 -9 23 8 8 24 -1 24 -14z m3424
12 c3 -4 -6 -6 -19 -3 -14 2 -25 6 -25 8 0 8 39 4 44 -5z m756 -1 c0 -5 -4
-10 -10 -10 -5 0 -10 5 -10 10 0 6 5 10 10 10 6 0 10 -4 10 -10z m-713 -6 c-3
-3 -12 -4 -19 -1 -8 3 -5 6 6 6 11 1 17 -2 13 -5z m2219 -16 c3 -5 2 -14 -3
-19 -12 -12 -40 -2 -40 14 0 16 34 20 43 5z m-1867 -48 c0 -3 -4 -14 -9 -25
-8 -18 -9 -19 -9 -1 -1 12 -6 16 -15 13 -10 -4 -13 -1 -10 8 5 13 45 18 43 5z
m159 -21 c-19 -12 -25 -11 -25 5 0 8 8 11 20 8 14 -4 16 -7 5 -13z m1593 -8
c15 8 17 6 12 -8 -5 -16 -4 -16 9 1 9 12 22 17 31 13 21 -8 11 -37 -12 -37 -9
0 -26 -3 -38 -6 -17 -5 -23 -2 -23 10 0 9 -4 16 -10 16 -5 0 -10 5 -10 12 0 9
3 9 12 0 7 -7 17 -8 29 -1z m-271 -26 c0 -8 -4 -15 -9 -15 -13 0 -22 16 -14
24 11 11 23 6 23 -9z m-5577 -44 c3 -14 -1 -17 -19 -13 -23 4 -31 21 -18 35
10 10 32 -3 37 -22z m3415 9 c12 0 22 -5 22 -10 0 -13 -70 -2 -85 13 -7 6 -2
8 15 3 14 -3 35 -6 48 -6z m1862 0 c0 -5 -4 -10 -10 -10 -5 0 -10 5 -10 10 0
6 5 10 10 10 6 0 10 -4 10 -10z m-1607 -52 c-15 -45 -7 -60 27 -51 10 3 27 0
37 -6 10 -6 12 -11 6 -11 -7 0 -13 -8 -13 -17 0 -10 -5 -25 -11 -33 -7 -11 -9
-7 -7 19 3 36 -8 47 -31 32 -12 -8 -12 -12 -2 -25 8 -9 10 -16 5 -16 -4 0 2
-10 13 -22 34 -38 39 -52 14 -39 -19 11 -47 49 -44 61 1 3 -9 5 -22 5 -22 0
-22 -1 -8 -29 9 -18 10 -26 3 -21 -9 5 -10 1 -5 -14 3 -11 4 -21 1 -21 -2 0
-12 23 -21 51 -15 45 -20 50 -41 46 -19 -3 -22 -2 -13 9 12 15 5 19 -41 27
-17 3 -14 5 13 6 26 1 37 6 37 16 0 8 -6 15 -12 16 -7 0 -3 5 10 11 17 9 26 8
41 -6 18 -17 20 -16 48 18 15 20 29 36 29 36 1 0 -5 -19 -13 -42z m437 -7 c0
-9 -7 -3 -15 13 -19 36 -19 47 0 22 8 -11 15 -27 15 -35z m770 18 c0 -5 -7 -9
-15 -9 -15 0 -20 12 -9 23 8 8 24 -1 24 -14z m915 11 c3 -6 -1 -13 -10 -16
-19 -8 -30 0 -20 15 8 14 22 14 30 1z m-1734 -27 c12 -14 12 -16 0 -8 -10 6
-12 4 -7 -4 5 -7 15 -10 23 -7 8 3 12 2 9 -3 -3 -5 9 -19 27 -31 23 -16 26
-20 10 -15 -13 4 -23 4 -23 1 0 -8 77 -27 125 -32 22 -2 67 -12 100 -23 63
-21 57 -28 -8 -10 -45 12 -54 8 -32 -15 15 -15 15 -16 -5 -16 -11 0 -23 6 -26
14 -5 14 -58 15 -71 2 -13 -13 -33 -5 -78 34 -43 38 -75 51 -75 31 0 -4 20
-30 45 -57 25 -26 45 -51 45 -56 0 -12 33 -26 49 -20 7 2 17 -1 21 -8 6 -9 11
-7 19 9 9 16 9 21 0 21 -8 0 -8 4 1 15 17 21 25 19 44 -10 14 -21 14 -24 1
-19 -18 7 -19 0 -4 -27 8 -16 13 -18 25 -9 7 7 11 16 8 21 -3 5 6 4 20 -3 28
-12 32 -24 15 -48 -8 -12 -9 -10 -4 7 7 25 -10 39 -29 23 -12 -9 -14 -29 -6
-50 1 -3 2 -8 1 -12 -2 -13 17 -9 22 5 3 6 4 0 3 -16 -3 -32 -32 -62 -61 -62
-11 0 -20 -6 -20 -13 0 -16 -101 -92 -123 -92 -15 0 -15 2 -2 11 11 7 3 8 -30
3 -54 -8 -60 -11 -60 -30 0 -13 4 -13 30 1 53 27 46 16 -9 -16 -52 -30 -55
-30 -68 -13 -7 10 -13 22 -13 27 0 4 -11 23 -24 40 -13 18 -27 46 -30 62 -4
19 -18 36 -38 48 -17 10 -29 20 -26 22 3 3 -12 24 -34 47 -21 23 -38 46 -38
51 0 5 9 -2 21 -16 20 -26 38 -31 50 -13 6 7 21 -24 22 -44 1 -7 38 -35 72
-53 19 -11 24 -16 13 -17 -15 0 -16 -3 -3 -32 19 -46 64 -47 114 -4 20 17 30
24 24 15 -11 -13 -8 -17 24 -27 20 -6 40 -9 44 -7 4 3 18 27 33 54 27 52 24
63 -19 74 -17 4 -17 5 4 6 19 1 7 14 -67 71 -50 39 -94 75 -97 80 -3 6 30 -17
74 -51 44 -33 83 -64 86 -70 10 -15 35 -10 35 7 0 8 -4 12 -10 9 -5 -3 -7 0
-4 9 4 10 0 13 -13 10 -19 -5 -63 36 -117 109 -16 20 -35 37 -43 37 -10 0 -13
6 -9 16 3 8 -2 27 -12 42 -16 24 -16 26 0 19 10 -3 20 -2 24 4 3 6 12 8 20 5
8 -3 14 -1 14 4 0 14 6 12 21 -7z m529 1 c0 -17 -22 -14 -28 4 -2 7 3 12 12
12 9 0 16 -7 16 -16z m-3961 -28 c9 -11 6 -12 -14 -8 -14 2 -22 8 -19 13 8 13
20 11 33 -5z m2908 8 c-3 -3 -12 -4 -19 -1 -8 3 -5 6 6 6 11 1 17 -2 13 -5z
m2242 -18 c0 -6 -4 -20 -9 -31 -8 -18 -9 -18 -9 -2 -1 10 -5 16 -10 13 -4 -3
-6 5 -4 19 5 24 34 25 32 1z m-5419 -1 c0 -8 -4 -15 -9 -15 -13 0 -22 16 -14
24 11 11 23 6 23 -9z m335 -15 c13 -5 14 -9 5 -9 -8 0 -24 4 -35 9 -13 5 -14
9 -5 9 8 0 24 -4 35 -9z m-637 -37 c-10 -13 -13 -12 -19 4 -9 25 0 36 17 22
11 -9 12 -15 2 -26z m2562 33 c0 -2 -7 -7 -16 -10 -8 -3 -12 -2 -9 4 6 10 25
14 25 6z m-2452 -34 c2 -7 -5 -12 -16 -12 -11 0 -22 8 -25 19 -4 16 -1 18 16
12 12 -4 23 -13 25 -19z m467 -6 c10 4 12 0 8 -15 -8 -31 -33 -26 -32 7 0 15
3 22 5 15 3 -7 11 -10 19 -7z m3330 -2 c-8 -9 -22 -13 -31 -10 -22 8 -7 26 22
26 23 0 24 -1 9 -16z m964 -13 c-3 -8 -11 -6 -24 4 -11 9 -14 14 -7 10 6 -3
12 -1 12 6 0 10 3 10 11 2 6 -6 10 -16 8 -22z m-4518 -23 c-11 -11 -13 -10 -7
0 4 7 2 21 -5 30 -12 15 -11 15 6 0 16 -15 17 -20 6 -30z m4994 11 c10 -15 -1
-23 -20 -15 -9 3 -13 10 -10 16 8 13 22 13 30 -1z m372 -11 c-3 -8 -6 -5 -6 6
-1 11 2 17 5 13 3 -3 4 -12 1 -19z m-1129 -13 c-3 -3 -9 2 -12 12 -6 14 -5 15
5 6 7 -7 10 -15 7 -18z m-4567 -17 c7 -18 14 -36 17 -40 2 -5 -3 -8 -10 -8 -8
0 -15 7 -16 15 -1 8 -3 22 -4 30 -1 8 -8 15 -15 15 -8 0 -11 5 -8 10 11 18 23
11 36 -22z m4642 -37 c3 -12 0 -19 -7 -18 -6 1 -11 -13 -11 -35 0 -35 0 -36
-18 -17 -21 22 -22 22 -49 8 -16 -8 -29 -7 -59 7 -22 9 -37 19 -35 21 2 3 14
-1 26 -7 17 -9 25 -9 34 1 8 9 8 10 -4 4 -8 -5 -12 -4 -7 0 4 5 -1 17 -10 29
-14 15 -9 13 17 -6 38 -28 80 -41 81 -27 3 37 1 79 -5 94 -5 13 0 11 17 -7 13
-14 27 -35 30 -47z m463 37 c2 1 4 -1 4 -5 0 -4 -12 -8 -27 -8 -16 0 -34 -4
-40 -8 -9 -6 -11 -3 -6 9 5 13 3 15 -7 9 -8 -5 -11 -4 -6 3 3 5 3 12 -1 15 -5
2 -3 3 3 1 6 -1 17 2 25 6 9 6 20 3 32 -8 11 -9 21 -16 23 -14z m-769 16 c-3
-3 -12 -4 -19 -1 -8 3 -5 6 6 6 11 1 17 -2 13 -5z m140 -15 c17 -1 21 -3 10
-6 -9 -2 -15 -9 -12 -14 4 -5 -5 -5 -20 1 -39 15 -43 12 -15 -10 20 -16 21
-19 5 -13 -18 6 -18 5 -6 -10 8 -10 9 -17 3 -17 -6 0 -14 5 -17 10 -3 6 -15
10 -26 10 -11 0 -19 7 -19 16 0 10 5 14 16 10 8 -3 12 -2 9 4 -3 6 -43 11 -88
12 l-82 1 82 6 c45 4 85 10 89 13 4 4 15 3 25 -2 10 -6 30 -11 46 -11z m-1707
-5 c0 -17 -22 -14 -28 4 -2 7 3 12 12 12 9 0 16 -7 16 -16z m2814 1 c-5 -11 2
-14 31 -12 21 1 40 -3 42 -9 5 -16 -28 -27 -41 -14 -19 19 -54 11 -75 -19 -23
-32 -27 -51 -11 -51 6 0 10 -11 10 -25 0 -32 -28 -23 -36 11 -5 19 -11 23 -27
18 -16 -5 -19 -3 -13 11 3 10 1 24 -5 31 -9 12 -9 13 4 8 9 -3 24 1 32 10 9 9
24 16 33 16 15 0 15 2 2 10 -12 8 -9 10 12 10 15 0 30 5 33 10 9 15 15 12 9
-5z m136 5 c0 -5 -7 -10 -15 -10 -8 0 -15 5 -15 10 0 6 7 10 15 10 8 0 15 -4
15 -10z m-1183 -6 c-3 -3 -12 -4 -19 -1 -8 3 -5 6 6 6 11 1 17 -2 13 -5z
m-4467 -37 c0 -5 -4 -5 -10 -2 -5 3 -10 14 -10 23 0 15 2 15 10 2 5 -8 10 -19
10 -23z m250 18 c0 -8 -7 -15 -15 -15 -8 0 -15 7 -15 15 0 8 7 15 15 15 8 0
15 -7 15 -15z m5425 5 c4 -6 1 -18 -6 -26 -12 -14 -14 -14 -20 3 -10 29 11 47
26 23z m-4915 -25 c0 -14 -4 -25 -9 -25 -5 0 -11 11 -13 25 -4 17 -1 25 8 25
8 0 14 -11 14 -25z m2780 -15 c12 -23 34 -49 49 -58 26 -16 28 -19 15 -37 -13
-17 -16 -18 -24 -5 -5 8 -10 18 -10 22 0 4 -13 30 -30 56 -16 27 -30 52 -30
56 0 15 11 3 30 -34z m54 24 c3 -8 2 -12 -4 -9 -6 3 -10 10 -10 16 0 14 7 11
14 -7z m1234 -20 c-4 -3 -12 5 -18 18 -12 22 -12 22 6 6 10 -10 15 -20 12 -24z
m67 16 c-3 -5 -14 -10 -23 -9 -14 0 -13 2 3 9 27 11 27 11 20 0z m-4945 -36
c0 -8 -4 -12 -10 -9 -5 3 -10 10 -10 16 0 5 5 9 10 9 6 0 10 -7 10 -16z m4982
-6 c-6 -23 -40 -23 -44 -1 -3 16 -5 16 -24 -2 -11 -11 -34 -31 -50 -45 l-29
-25 29 32 c17 19 25 36 21 44 -5 8 -4 10 3 5 7 -4 18 -3 26 1 8 4 28 8 44 8
23 0 28 -4 24 -17z m-4208 -25 c19 -9 32 -21 29 -26 -3 -6 -1 -7 4 -4 11 7 83
-18 83 -28 0 -3 -21 -5 -46 -5 -25 0 -43 4 -40 9 7 10 -70 41 -119 47 -20 2
-48 -2 -65 -11 -16 -8 -31 -11 -34 -6 -8 13 20 23 84 31 30 4 58 8 62 9 4 0
23 -6 42 -16z m2266 7 c0 -5 -2 -10 -4 -10 -3 0 -8 5 -11 10 -3 6 -1 10 4 10
6 0 11 -4 11 -10z m-2889 -23 c-10 -9 -11 -8 -5 6 3 10 9 15 12 12 3 -3 0 -11
-7 -18z m5599 -2 c0 -8 -4 -15 -10 -15 -5 0 -7 7 -4 15 4 8 8 15 10 15 2 0 4
-7 4 -15z m-1142 -41 c6 3 13 -3 17 -14 3 -11 13 -20 21 -20 8 0 14 -5 14 -11
0 -5 -4 -8 -9 -4 -5 3 -13 1 -16 -5 -5 -8 -11 -7 -21 1 -7 6 -11 16 -8 21 6
10 -27 39 -37 32 -4 -2 -9 8 -12 22 l-5 26 22 -27 c13 -16 28 -25 34 -21z
m1197 36 c4 -6 1 -17 -5 -25 -10 -12 -14 -12 -26 0 -8 7 -14 18 -14 24 0 14
37 14 45 1z m-644 -42 c6 1 8 -2 4 -8 -7 -11 3 -16 55 -24 19 -3 40 -14 47
-24 10 -17 8 -18 -13 -14 -13 2 -24 8 -24 12 0 14 -50 21 -71 9 -24 -12 -37
-3 -44 29 -2 12 -7 28 -11 35 -5 7 0 6 11 -3 17 -14 18 -13 12 5 l-7 20 16
-20 c8 -11 20 -19 25 -17z m-5078 -23 c20 -17 17 -32 -6 -31 -12 0 -22 7 -21
14 5 59 6 67 11 47 3 -11 10 -25 16 -30z m387 30 c-7 -9 -15 -13 -19 -10 -3 3
1 10 9 15 21 14 24 12 10 -5z m45 5 c3 -5 2 -10 -4 -10 -5 0 -13 5 -16 10 -3
6 -2 10 4 10 5 0 13 -4 16 -10z m4940 -10 c10 -11 16 -20 13 -20 -3 0 -13 9
-23 20 -10 11 -16 20 -13 20 3 0 13 -9 23 -20z m-623 -2 c-16 -16 -15 -33 1
-20 10 9 12 4 9 -23 -5 -38 -23 -45 -48 -20 -8 8 -16 16 -17 19 -3 7 46 56 57
56 6 0 5 -5 -2 -12z m-4529 -34 c-9 -23 -23 -16 -23 12 0 22 2 24 14 14 8 -6
12 -18 9 -26z m652 26 c4 -6 15 -8 24 -5 11 3 25 -3 36 -15 18 -19 18 -20 -1
-21 -10 -1 -22 -1 -26 0 -4 0 -24 -5 -45 -12 -31 -11 -42 -11 -63 0 l-25 13
32 0 c34 0 51 14 32 26 -8 4 -7 9 2 15 18 11 26 11 34 -1z m-505 -26 c0 -8 -7
-14 -15 -14 -15 0 -21 21 -9 33 10 9 24 -2 24 -19z m5300 15 c0 -6 12 -27 28
-47 15 -20 21 -33 15 -28 -10 5 -11 -2 -8 -26 3 -18 3 -27 -1 -20 -3 6 -12 12
-20 12 -17 0 -19 16 -1 24 8 3 6 9 -8 21 -19 15 -29 75 -13 75 4 0 8 -5 8 -11z
m-5250 -19 c0 -5 -7 -7 -15 -4 -8 4 -12 10 -9 15 6 11 24 2 24 -11z m619 1
l24 -19 -22 -12 c-19 -10 -26 -9 -42 6 -14 13 -16 20 -8 31 15 17 19 16 48 -6z
m2569 -19 c3 -16 -1 -19 -17 -15 -21 5 -27 23 -14 37 12 11 28 0 31 -22z
m1833 -14 c22 -9 20 -62 -3 -66 -10 -2 -18 2 -18 8 0 6 -16 -1 -35 -16 -19
-14 -35 -31 -35 -36 0 -6 8 -4 17 3 14 12 14 10 -1 -13 -21 -32 -34 -35 -43
-10 -3 9 -20 32 -37 51 l-31 35 33 -27 c19 -15 38 -27 43 -27 19 0 89 63 89
79 0 9 -7 28 -16 41 -15 25 -15 25 3 5 10 -12 25 -24 34 -27z m-1610 17 c19
-8 29 -14 23 -15 -7 0 -27 7 -45 15 -19 8 -29 14 -23 15 7 0 27 -7 45 -15z
m719 -52 c0 -7 3 -13 8 -13 9 0 57 -76 57 -90 0 -17 19 -12 26 7 4 10 8 13 8
7 1 -7 8 -15 17 -18 8 -3 12 -2 9 4 -3 6 1 20 9 32 16 22 16 22 16 2 0 -12 -8
-32 -18 -45 -10 -13 -22 -32 -25 -42 -12 -31 -29 -14 -71 69 -23 44 -52 97
-65 119 l-23 40 25 -30 c15 -16 26 -36 27 -42z m-3820 46 c0 -5 -4 -8 -9 -5
-5 4 -11 1 -13 -5 -2 -7 -9 -5 -17 5 -12 14 -10 16 13 16 14 0 26 -5 26 -11z
m1560 -3 c0 -3 -4 -8 -10 -11 -5 -3 -10 -1 -10 4 0 6 5 11 10 11 6 0 10 -2 10
-4z m-2097 -33 c-21 -7 -15 -22 17 -38 17 -9 30 -13 30 -11 0 3 16 -2 35 -10
19 -8 35 -11 35 -8 0 4 7 1 15 -6 8 -6 20 -8 26 -4 8 5 10 2 6 -8 -3 -9 -2
-19 3 -24 5 -5 -2 -10 -16 -10 -19 -2 -28 5 -35 23 -8 21 -15 24 -39 21 -16
-2 -27 -1 -25 3 6 8 -67 39 -77 32 -5 -2 -8 -11 -8 -19 0 -8 -7 -14 -15 -14
-20 0 -19 17 1 37 14 15 14 17 0 25 -25 14 -10 25 26 20 18 -3 27 -7 21 -9z
m124 0 c3 -7 -3 -9 -17 -6 -29 8 -37 25 -9 21 12 -1 24 -8 26 -15z m3233 7 c0
-5 -4 -10 -10 -10 -5 0 -10 5 -10 10 0 6 5 10 10 10 6 0 10 -4 10 -10z m1642
-8 c3 8 9 5 17 -9 9 -18 9 -27 -1 -43 -12 -18 -13 -18 -30 17 -21 43 -23 66
-4 40 10 -13 15 -15 18 -5z m-3059 -32 c3 -11 1 -18 -4 -14 -5 3 -9 12 -9 20
0 20 7 17 13 -6z m2507 -44 c0 -12 -5 -7 -19 24 -11 24 -11 24 3 6 9 -11 16
-24 16 -30z m-4146 11 c16 -12 17 -17 7 -33 -12 -18 -12 -18 -7 0 5 15 2 17
-14 13 -11 -3 -20 -1 -20 4 0 5 -8 9 -17 9 -15 0 -16 2 -3 10 20 13 33 12 54
-3z m5306 -3 c0 -8 -5 -12 -10 -9 -6 4 -8 11 -5 16 9 14 15 11 15 -7z m-30
-15 c0 -16 -31 -22 -43 -9 -10 10 -8 12 7 6 13 -4 17 -2 13 8 -4 10 -1 13 9 9
7 -3 14 -9 14 -14z m-3600 1 c-8 -5 -23 -10 -32 -10 -20 0 -21 -2 -12 -24 3
-9 10 -14 14 -11 4 3 7 -2 6 -11 0 -9 8 -21 19 -28 11 -6 30 -18 42 -27 19
-14 20 -18 7 -23 -8 -3 -12 -2 -9 4 3 6 1 10 -4 10 -16 0 -13 -36 3 -49 8 -7
29 -9 51 -5 27 4 35 2 30 -6 -4 -6 -15 -10 -24 -7 -19 4 -46 -19 -32 -28 5 -3
11 0 13 5 2 6 18 -1 37 -14 19 -14 38 -23 42 -20 5 3 9 1 9 -4 0 -5 15 -4 35
2 42 13 43 19 10 34 -31 14 -48 15 -40 3 3 -5 1 -12 -4 -16 -6 -3 -8 3 -6 15
2 11 -3 24 -13 30 -42 24 10 7 60 -20 49 -27 59 -29 89 -19 19 7 39 16 44 21
6 5 -2 5 -17 -1 -16 -6 -28 -8 -28 -5 0 3 12 9 28 15 15 5 37 24 50 42 12 17
22 27 22 21 0 -6 -9 -23 -21 -38 l-20 -26 30 0 c30 0 31 2 33 43 l1 42 6 -45
c5 -35 10 -46 26 -48 11 -1 26 2 34 7 11 7 9 15 -11 42 -41 55 -43 67 -3 21
20 -23 42 -39 47 -36 6 4 8 3 5 -3 -9 -15 23 -55 40 -49 8 3 11 1 8 -4 -8 -13
11 -13 37 1 16 9 19 8 13 -2 -11 -16 -12 -69 -2 -62 4 2 7 0 7 -6 0 -6 6 -8
14 -5 18 7 25 -23 13 -59 -5 -15 -6 -34 -3 -43 3 -8 2 -12 -4 -9 -6 3 -10 15
-10 25 0 10 -5 22 -11 26 -7 4 -9 0 -6 -12 4 -11 9 -31 12 -46 4 -15 13 -29
21 -32 8 -3 14 -15 14 -26 0 -17 57 -125 87 -165 13 -18 14 -35 2 -56 -10 -20
-12 -20 -29 -4 -15 13 -17 22 -10 36 16 30 -36 145 -79 175 -12 9 -18 20 -15
26 3 5 -2 48 -12 94 -16 72 -22 86 -42 91 -12 3 -21 10 -20 17 3 12 -35 66
-47 66 -3 0 -3 -5 1 -12 4 -6 3 -8 -2 -5 -6 3 -16 2 -24 -4 -12 -7 -9 -9 10
-10 14 -1 28 -1 32 -1 3 1 11 -5 17 -12 9 -11 3 -11 -36 -3 -35 9 -48 8 -51
-1 -6 -18 -25 -15 -45 8 -20 24 -46 26 -73 5 -18 -14 -17 -14 9 -5 42 15 57
11 20 -5 -18 -8 -33 -21 -33 -30 0 -19 -29 -20 -36 -1 -4 11 -12 13 -31 5 -32
-12 -42 -11 -23 2 12 9 12 10 -3 5 -10 -3 -24 -6 -30 -6 -7 0 -6 -4 3 -10 12
-8 13 -10 1 -10 -8 0 -23 -8 -33 -17 -20 -18 -37 -9 -42 20 -3 20 -35 57 -50
57 -6 0 3 -11 19 -25 17 -13 26 -24 20 -24 -5 0 -26 13 -45 29 -19 17 -42 30
-52 30 -16 0 -23 11 -19 33 3 16 -54 97 -71 103 -10 3 -18 15 -18 28 0 36 13
43 95 54 6 1 3 -3 -5 -8z m3483 -35 c-3 -9 -8 -14 -10 -11 -3 3 -2 9 2 15 9
16 15 13 8 -4z m188 -7 c8 -14 6 -20 -7 -25 -10 -4 -19 -2 -22 5 -2 7 -12 12
-23 12 -10 0 -19 6 -19 14 0 22 59 17 71 -6z m-3250 -15 c6 -16 4 -20 -7 -19
-21 3 -37 23 -29 36 10 16 27 8 36 -17z m-1750 -5 c1 -7 1 -17 0 -22 -1 -5 5
-6 14 -2 10 3 13 2 10 -5 -4 -5 -16 -7 -27 -3 -12 3 -18 2 -15 -3 4 -5 0 -10
-7 -10 -8 0 -12 6 -9 14 4 9 0 11 -12 7 -16 -6 -16 -5 1 14 20 24 43 29 45 10z
m2982 -21 c6 3 22 8 36 9 14 2 35 5 45 6 10 2 21 -3 23 -9 3 -7 0 -13 -6 -13
-6 0 -11 4 -11 9 0 5 -15 4 -35 -2 -28 -8 -34 -14 -29 -29 3 -11 0 -20 -10
-24 -9 -3 -16 -14 -16 -23 0 -9 -6 -4 -15 13 -9 16 -14 34 -12 40 3 6 -5 22
-17 35 l-21 25 29 -22 c15 -12 33 -19 39 -15z m1387 3 c12 -23 12 -24 -3 -11
-10 7 -17 11 -17 8 0 -10 63 -97 70 -97 20 0 17 17 -7 44 -15 17 -6 11 20 -14
52 -49 56 -59 27 -67 -17 -5 -18 -8 -8 -22 12 -14 11 -14 -4 -2 -10 7 -28 30
-40 50 -12 20 -36 55 -55 78 -30 38 -32 43 -16 52 10 5 18 9 19 8 1 -1 7 -13
14 -27z m556 5 c1 -8 -2 -15 -6 -15 -5 0 -8 9 -7 20 1 21 10 18 13 -5z m-2991
-5 c3 -5 -1 -10 -10 -10 -9 0 -13 5 -10 10 3 6 8 10 10 10 2 0 7 -4 10 -10z
m1957 -13 c-5 -7 -12 -24 -15 -38 -6 -24 -4 -26 19 -21 20 4 25 9 20 26 -5 20
-5 21 9 2 19 -26 19 -33 -2 -39 -10 -2 -26 -8 -36 -12 -13 -6 -21 1 -33 31
-15 36 -15 38 7 55 25 18 46 15 31 -4z m-3702 -18 c0 -18 -2 -18 -27 -6 -16 8
-33 12 -40 10 -6 -2 -14 0 -16 4 -3 5 8 10 26 11 17 2 33 5 35 7 9 9 22 -7 22
-26z m2505 20 c10 -15 -1 -23 -20 -15 -9 3 -13 10 -10 16 8 13 22 13 30 -1z
m2299 -5 c8 -22 8 -24 -8 -24 -7 0 -19 7 -26 15 -11 13 -10 14 5 9 13 -5 16
-4 11 4 -4 7 -3 12 2 12 6 0 13 -7 16 -16z m-5378 -9 c-3 -10 9 -21 41 -35 42
-18 48 -19 69 -5 27 18 44 19 44 4 0 -5 -4 -8 -8 -5 -11 7 -54 -23 -48 -33 8
-13 -11 -34 -24 -26 -9 6 -9 9 1 16 22 13 -20 38 -58 35 -37 -3 -45 9 -30 42
11 24 23 31 13 7z m3504 -19 c0 -6 -21 -34 -46 -61 l-46 -50 43 53 c67 83 39
70 -44 -21 -52 -58 -70 -83 -57 -82 10 1 29 12 40 26 l22 24 -16 -25 c-40 -61
-53 -79 -88 -119 -25 -29 -35 -36 -31 -22 3 12 9 24 14 27 15 9 10 20 -10 21
-14 1 -32 -28 -80 -128 -34 -71 -64 -129 -66 -129 -7 0 10 41 48 117 20 38 46
96 60 130 l25 61 -27 28 -26 28 27 -23 c14 -13 31 -20 36 -17 6 3 12 1 14 -5
2 -6 41 28 86 75 46 48 80 91 76 97 -10 16 18 30 33 17 7 -6 13 -16 13 -22z
m1684 3 c-3 -5 2 -6 10 -3 16 6 23 -20 8 -29 -14 -9 -54 32 -48 49 5 13 9 14
21 4 8 -7 12 -16 9 -21z m-4956 -9 c-7 -11 -16 -20 -21 -20 -4 0 -6 -4 -3 -8
2 -4 1 -14 -5 -22 -5 -10 -9 -11 -9 -3 0 7 -7 10 -15 7 -11 -5 -14 0 -13 18 2
19 7 24 20 20 10 -2 18 0 18 6 0 6 8 13 18 15 9 3 18 5 20 6 1 0 -3 -8 -10
-19z m99 14 c-3 -3 -12 -4 -19 -1 -8 3 -5 6 6 6 11 1 17 -2 13 -5z m-40 -10
c-3 -3 -12 -4 -19 -1 -8 3 -5 6 6 6 11 1 17 -2 13 -5z m3160 0 c-3 -3 -12 -4
-19 -1 -8 3 -5 6 6 6 11 1 17 -2 13 -5z m-2798 -40 c2 -2 -6 -2 -18 -1 -11 1
-23 7 -26 14 -4 11 0 11 18 2 12 -6 24 -13 26 -15z m1176 8 c-3 -3 -11 0 -18
7 -9 10 -8 11 6 5 10 -3 15 -9 12 -12z m2875 -8 c0 -8 -6 -11 -15 -8 -11 5
-13 2 -9 -9 3 -9 13 -14 22 -10 12 3 13 2 4 -4 -10 -7 -8 -13 7 -27 23 -21 49
-13 30 10 -26 32 7 11 41 -26 35 -37 70 -56 54 -27 -4 6 1 5 12 -4 10 -9 24
-14 31 -12 6 2 14 -1 18 -6 3 -6 -2 -11 -12 -11 -12 0 -19 -7 -19 -19 0 -11 3
-19 6 -19 3 0 15 -3 28 -7 24 -8 27 -42 2 -37 -7 2 -16 -2 -20 -9 -6 -8 -9 -8
-14 0 -4 6 -2 11 3 11 6 0 11 8 11 18 0 13 -2 14 -9 3 -5 -7 -13 -11 -19 -7
-17 10 -7 -22 17 -55 13 -17 26 -27 30 -22 5 8 14 9 39 4 4 -1 0 -5 -8 -11
-13 -8 -13 -10 0 -14 8 -3 29 -6 45 -8 17 -2 28 -7 25 -13 -3 -5 -12 -8 -20
-7 -8 2 -29 4 -47 3 -27 0 -36 7 -60 45 -15 24 -34 44 -42 44 -10 0 -11 3 -2
14 9 11 8 18 -4 30 -9 9 -21 14 -26 11 -17 -11 -31 6 -18 21 9 11 -2 26 -55
77 -61 58 -76 84 -60 100 10 9 34 -4 34 -19z m-4168 9 c-10 -4 -8 -12 10 -32
l23 -26 -27 24 c-27 23 -29 42 -5 40 8 0 8 -2 -1 -6z m2178 -7 c0 -16 -18 -31
-27 -22 -8 8 5 36 17 36 5 0 10 -6 10 -14z m2406 -44 c-17 -16 -18 -16 -5 5 7
12 15 20 18 17 3 -2 -3 -12 -13 -22z m-4956 -11 c0 -4 -7 -16 -16 -27 -14 -18
-15 -18 -4 4 6 12 8 28 4 34 -4 7 -3 8 4 4 7 -4 12 -11 12 -15z m80 -16 c0 -1
-7 -8 -15 -15 -13 -10 -15 -9 -15 8 0 15 5 20 15 16 8 -4 15 -7 15 -9z m5210
-9 c0 -27 -12 -46 -29 -45 -10 0 -11 2 -4 6 8 3 11 14 7 29 -5 18 -2 24 10 24
9 0 16 -6 16 -14z m-4790 -11 c18 -21 7 -40 -23 -40 -21 -1 -27 4 -27 20 0 37
27 48 50 20z m4359 -22 c12 -11 12 -13 -1 -18 -23 -9 -60 25 -46 42 8 11 13
11 22 1 6 -7 17 -18 25 -25z m329 -2 c-8 -12 -18 -18 -21 -14 -4 3 1 14 11 23
22 23 28 17 10 -9z m-4494 -17 c3 -9 1 -12 -4 -9 -7 4 -10 -8 -8 -34 3 -34 8
-43 38 -59 19 -10 35 -22 35 -27 0 -6 4 -15 8 -22 6 -9 1 -10 -22 -2 -29 10
-62 39 -45 39 5 0 -5 13 -21 28 -17 15 -26 24 -21 20 19 -15 24 -8 16 22 -5
18 -5 32 1 36 6 4 5 11 -2 20 -10 12 -9 13 4 8 8 -3 18 -12 21 -20z m3876 11
c20 -24 6 -28 -15 -5 -10 11 -13 20 -8 20 6 0 16 -7 23 -15z m462 -17 c-15
-15 -26 -4 -18 18 5 13 9 15 18 6 9 -9 9 -15 0 -24z m81 14 c-27 -4 -31 -21
-5 -24 9 0 23 -2 29 -2 29 -3 10 -21 -20 -20 -36 2 -52 -13 -35 -34 6 -7 14
-9 17 -4 12 19 51 24 57 7 9 -22 -3 -30 -21 -15 -13 11 -19 11 -33 -3 -15 -16
-15 -18 3 -32 11 -8 26 -15 33 -15 7 0 10 -5 7 -11 -5 -7 -13 -4 -26 7 -18 16
-19 16 -29 -7 -10 -23 -10 -23 -5 4 4 21 3 27 -6 21 -9 -5 -10 -2 -6 11 4 9 3
23 -3 30 -7 8 -5 26 6 57 13 40 18 45 37 40 l22 -7 -22 -3z m-202 -25 c-10 -9
-11 -8 -5 6 3 10 9 15 12 12 3 -3 0 -11 -7 -18z m449 3 c0 -5 -6 -10 -12 -10
-10 0 -9 -3 1 -9 7 -5 10 -14 7 -20 -12 -19 -26 -12 -22 12 3 12 5 25 5 30 1
11 21 8 21 -3z m-487 -60 c-6 -6 -33 30 -33 43 0 5 9 -1 19 -14 11 -13 17 -26
14 -29z m367 10 c13 -8 13 -10 -2 -10 -9 0 -20 5 -23 10 -8 13 5 13 25 0z
m210 -5 c7 -9 8 -15 2 -15 -5 0 -12 7 -16 15 -3 8 -4 15 -2 15 2 0 9 -7 16
-15z m60 5 c0 -5 -7 -10 -16 -10 -8 0 -12 5 -9 10 3 6 10 10 16 10 5 0 9 -4 9
-10z m-5610 -15 c-6 -8 -9 -19 -6 -24 10 -15 -14 -25 -27 -12 -9 9 -6 17 13
31 30 23 37 25 20 5z m5093 1 c3 3 3 -3 0 -15 -4 -17 -9 -19 -24 -10 -10 5
-19 12 -19 15 0 3 5 2 12 -2 8 -5 9 -2 4 11 -5 14 -4 16 7 7 8 -7 16 -9 20 -6z
m417 10 c0 -3 -4 -8 -10 -11 -5 -3 -10 -1 -10 4 0 6 5 11 10 11 6 0 10 -2 10
-4z m-5010 -40 c0 -3 -4 -8 -10 -11 -5 -3 -10 -1 -10 4 0 6 5 11 10 11 6 0 10
-2 10 -4z m4785 -26 c3 -6 1 -10 -4 -10 -6 0 -11 5 -11 10 0 6 -7 10 -15 10
-8 0 -15 5 -15 10 0 12 35 -4 45 -20z m88 23 c-7 -2 -19 -2 -25 0 -7 3 -2 5
12 5 14 0 19 -2 13 -5z m252 -3 c3 -5 1 -10 -4 -10 -6 0 -11 5 -11 10 0 6 2
10 4 10 3 0 8 -4 11 -10z m167 -44 c-2 -5 -9 -1 -14 8 -5 9 -13 14 -19 11 -10
-7 -12 8 -2 18 9 9 42 -26 35 -37z m-2604 -20 c-13 -24 -24 -40 -26 -36 -3 8
37 80 44 80 2 0 -6 -20 -18 -44z m-3000 16 c2 -7 -3 -12 -12 -12 -9 0 -16 7
-16 16 0 17 22 14 28 -4z m5842 -18 c0 -8 -5 -12 -10 -9 -6 4 -8 11 -5 16 9
14 15 11 15 -7z m-6031 -10 c-7 -9 -7 -19 0 -32 9 -17 8 -19 -7 -15 -14 3 -17
12 -14 32 2 15 10 28 18 28 10 0 11 -4 3 -13z m956 2 c8 -7 39 -17 69 -20 31
-4 59 -13 63 -21 5 -7 39 -30 76 -50 37 -21 66 -40 63 -43 -3 -3 -1 -11 4 -17
7 -9 0 -20 -27 -41 -21 -16 -41 -28 -44 -27 -4 1 -5 -5 -3 -15 3 -10 -4 -22
-16 -30 -17 -10 -20 -10 -20 4 0 9 -5 12 -12 8 -8 -5 -7 0 2 12 23 29 44 43
55 37 5 -4 7 -2 2 2 -4 5 0 16 9 26 27 29 9 47 -68 70 -44 12 -81 30 -93 44
-11 13 -37 30 -58 39 -21 8 -36 20 -32 26 8 13 14 13 30 -4z m-210 -6 c-3 -5
-12 -7 -20 -3 -21 7 -19 13 6 13 11 0 18 -4 14 -10z m4298 -7 c4 -3 2 -12 -4
-20 -9 -10 -15 -10 -25 -2 -8 6 -11 15 -8 20 6 11 28 12 37 2z m64 -19 c-3 -3
-12 -4 -19 -1 -8 3 -5 6 6 6 11 1 17 -2 13 -5z m32 -20 c1 11 4 17 7 13 13
-13 -5 -35 -25 -30 -16 4 -17 8 -8 18 10 10 13 10 19 -4 6 -14 7 -13 7 3z
m621 1 c0 -8 -4 -15 -10 -15 -5 0 -10 7 -10 15 0 8 5 15 10 15 6 0 10 -7 10
-15z m-560 -1 c0 -8 -19 -13 -24 -6 -3 5 1 9 9 9 8 0 15 -2 15 -3z m-2414 -15
c8 -14 -11 -33 -25 -25 -11 7 -4 36 9 36 5 0 12 -5 16 -11z m2524 -9 c-13 -11
-25 -20 -28 -20 -3 0 3 9 13 20 10 11 23 20 28 20 6 0 0 -9 -13 -20z m-5369
-27 c12 -14 12 -16 0 -8 -11 6 -13 4 -8 -9 6 -14 3 -15 -13 -6 -23 12 -27 40
-6 40 7 0 20 -8 27 -17z m5509 -23 c0 -10 -31 -22 -38 -16 -2 3 -2 12 1 20 6
15 37 12 37 -4z m-2966 -22 c-3 -4 -12 -8 -20 -8 -17 0 -19 27 -1 33 14 5 28
-13 21 -25z m557 -57 c-17 -34 -33 -61 -36 -61 -3 0 10 29 27 65 18 35 34 63
36 61 2 -2 -11 -31 -27 -65z m2499 49 c0 -5 -2 -10 -4 -10 -3 0 -8 5 -11 10
-3 6 -1 10 4 10 6 0 11 -4 11 -10z m30 0 c0 -5 -4 -10 -10 -10 -5 0 -10 5 -10
10 0 6 5 10 10 10 6 0 10 -4 10 -10z m-2391 -63 c-8 -7 -35 -39 -60 -72 -24
-33 -52 -69 -61 -79 -36 -40 -17 -37 27 3 76 70 59 45 -25 -36 l-79 -78 5 -58
c4 -53 3 -58 -19 -66 -26 -10 -100 -95 -90 -104 8 -9 -17 -38 -28 -32 -4 3
-30 -16 -56 -42 -26 -25 -62 -55 -80 -64 -29 -17 -35 -17 -78 -3 -43 15 -47
15 -65 -1 -16 -15 -22 -15 -35 -5 -8 7 -14 18 -13 24 2 13 -38 94 -59 118 -9
10 -13 26 -10 38 3 11 2 18 -3 15 -4 -3 -11 7 -14 23 -18 77 -71 201 -88 205
-22 6 -24 35 -3 43 8 4 18 24 21 45 4 22 9 37 12 34 9 -9 33 56 25 69 -3 6 -3
8 2 4 5 -5 17 11 27 34 10 22 21 38 24 35 3 -3 -2 -20 -11 -38 -25 -47 -75
-172 -75 -186 0 -6 12 -16 28 -22 l27 -11 -28 5 c-26 5 -28 4 -21 -17 10 -33
40 -100 90 -204 47 -96 51 -109 32 -98 -7 4 -10 4 -6 0 3 -4 8 -6 11 -4 3 2
14 -6 26 -16 12 -11 21 -16 21 -11 0 4 6 3 13 -3 18 -15 69 -23 85 -13 22 13
-64 44 -87 31 -14 -7 -22 -6 -30 4 -9 11 -6 12 16 9 27 -4 26 -3 -7 16 -48 28
-34 26 34 -4 31 -14 65 -25 75 -25 18 0 61 26 128 78 18 13 33 22 33 19 0 -4
-20 -21 -45 -40 -24 -19 -41 -38 -37 -42 4 -5 2 -5 -4 -2 -7 4 -23 -2 -35 -14
l-24 -21 23 5 c12 3 20 2 17 -3 -3 -4 2 -10 10 -14 8 -3 17 0 21 6 5 7 2 8 -7
4 -8 -4 -5 0 6 9 11 9 19 21 17 26 -1 6 2 8 8 4 5 -3 15 5 22 19 6 14 15 26
20 26 5 0 6 -5 2 -12 -4 -7 -3 -8 4 -4 6 4 8 14 5 23 -5 12 -3 14 7 8 8 -5 11
-3 8 6 -3 8 -15 20 -29 26 l-24 13 25 0 c23 0 19 6 -35 56 l-60 56 59 -48 59
-49 15 23 c8 13 38 72 67 132 28 60 55 113 60 117 4 5 3 -2 -4 -14 -16 -32
-15 -48 4 -33 10 8 15 31 15 66 0 41 4 54 15 54 17 0 20 -21 6 -35 -5 -6 -11
-35 -13 -66 l-4 -57 33 35 c18 20 30 40 26 46 -3 6 -1 7 5 3 7 -4 12 -3 12 1
0 5 11 21 26 36 14 15 22 32 18 39 -4 6 -3 8 3 5 6 -4 18 4 27 18 9 14 15 25
12 25 -2 0 -29 -11 -60 -25 -81 -36 -83 -30 -2 11 60 31 68 38 63 60 l-4 24
26 -26 c22 -23 24 -27 10 -37z m2115 22 c-15 -16 -33 -29 -38 -29 -6 0 -3 5 7
11 9 5 17 18 17 29 0 19 18 31 33 23 5 -3 -4 -18 -19 -34z m-5164 10 c0 -24
-23 -21 -28 4 -2 10 3 17 12 17 10 0 16 -9 16 -21z m5580 11 c0 -5 -4 -10 -10
-10 -5 0 -10 5 -10 10 0 6 5 10 10 10 6 0 10 -4 10 -10z m70 -10 c0 -5 -4 -10
-9 -10 -6 0 -13 5 -16 10 -3 6 1 10 9 10 9 0 16 -4 16 -10z m-5450 -45 c0 -8
-7 -15 -15 -15 -8 0 -15 7 -15 15 0 8 7 15 15 15 8 0 15 -7 15 -15z m4863 -72
c-3 -20 -11 -29 -24 -30 -10 -1 -19 2 -19 8 0 5 5 9 11 9 6 0 9 9 6 20 -3 10
0 21 7 23 18 7 23 -1 19 -30z m-1841 -12 c20 -35 17 -51 -11 -51 -23 0 -65
-120 -47 -132 8 -5 6 -17 -6 -39 -10 -17 -18 -39 -18 -49 0 -13 -12 -21 -44
-29 -25 -6 -49 -11 -55 -11 -16 0 -41 55 -40 87 l1 28 9 -25 c7 -21 8 -18 4
13 -3 29 -1 37 11 35 8 -2 25 16 40 40 14 23 21 42 15 42 -5 0 -11 -3 -14 -7
-2 -5 -2 -2 0 6 2 7 -2 20 -8 28 -16 18 3 38 36 38 19 1 22 -2 13 -12 -21 -26
9 -12 36 16 17 18 25 34 21 42 -5 8 -4 10 3 5 7 -4 12 -2 12 4 0 21 24 4 42
-29z m2448 -13 c0 -5 -6 -8 -14 -8 -9 0 -12 7 -9 21 4 16 8 17 14 7 5 -7 9
-16 9 -20z m-5700 -20 c19 -24 25 -35 14 -25 -12 9 -28 17 -37 17 -20 0 -29
14 -21 34 3 9 7 16 8 16 2 0 18 -19 36 -42z m992 -50 c-6 -6 -7 0 -4 19 5 21
7 23 10 9 2 -10 0 -22 -6 -28z m4358 22 c0 -5 -4 -10 -10 -10 -5 0 -10 5 -10
10 0 6 5 10 10 10 6 0 10 -4 10 -10z m-5275 -40 c10 -11 16 -20 13 -20 -3 0
-13 9 -23 20 -10 11 -16 20 -13 20 3 0 13 -9 23 -20z m4785 -1 c0 -5 -4 -8 -9
-5 -5 3 -11 -1 -14 -8 -3 -8 -1 -17 6 -19 9 -3 8 -9 -4 -21 -14 -15 -17 -15
-35 5 -18 21 -18 22 -1 16 13 -5 17 -3 14 5 -2 7 3 18 12 25 20 15 31 16 31 2z
m-3854 -19 c8 0 14 -9 14 -20 0 -14 -7 -20 -23 -20 -13 0 -28 -5 -35 -12 -16
-16 -16 -41 1 -32 9 5 9 4 0 -6 -9 -10 -10 -17 -2 -27 16 -19 -8 -48 -27 -32
-17 14 -44 5 -44 -15 0 -17 -27 -29 -35 -16 -4 6 -14 6 -28 -1 -18 -9 -20 -9
-9 2 19 20 14 31 -10 25 -13 -3 -17 -3 -9 0 11 5 8 11 -10 26 l-24 19 30 -14
c17 -7 41 -12 55 -10 14 2 33 4 43 4 9 0 17 6 17 14 0 7 7 16 16 19 9 4 14 9
11 13 -4 3 -18 -2 -31 -11 -43 -28 -41 -17 3 14 23 17 49 47 59 66 9 20 18 31
20 25 2 -6 10 -11 18 -11z m-859 -32 c-16 -10 -27 0 -27 24 0 21 0 21 19 2 12
-12 14 -21 8 -26z m2413 -3 c0 -8 -7 -15 -15 -15 -8 0 -15 7 -15 15 0 8 7 15
15 15 8 0 15 -7 15 -15z m-1898 -27 c-9 -9 -15 -9 -24 0 -10 10 -10 15 2 22 9
6 19 5 24 0 7 -7 6 -14 -2 -22z m-412 2 c0 -5 -4 -10 -10 -10 -5 0 -10 5 -10
10 0 6 5 10 10 10 6 0 10 -4 10 -10z m-50 -59 c0 -11 -4 -9 -15 5 -8 10 -15
25 -15 33 0 11 4 9 15 -5 8 -10 15 -25 15 -33z m2284 -1 c-15 -22 -29 -40 -31
-40 -5 0 3 15 29 53 30 43 31 32 2 -13z m-2327 8 c-3 -8 -6 -5 -6 6 -1 11 2
17 5 13 3 -3 4 -12 1 -19z m5683 -22 c0 -3 -4 -8 -10 -11 -5 -3 -10 -1 -10 4
0 6 5 11 10 11 6 0 10 -2 10 -4z m-1038 -38 c-9 -9 -15 -9 -24 0 -10 10 -10
15 2 22 20 12 38 -6 22 -22z m-4599 -10 c10 9 17 7 30 -8 20 -24 6 -35 -24
-19 -15 8 -24 8 -28 1 -12 -20 -34 4 -26 29 7 22 8 22 21 4 10 -14 17 -15 27
-7z m577 18 c0 -2 -7 -7 -16 -10 -8 -3 -12 -2 -9 4 6 10 25 14 25 6z m1651
-24 c-5 -10 -18 -25 -27 -33 -11 -9 -9 -2 6 19 26 35 36 42 21 14z m-1724 -27
c8 -22 -2 -28 -32 -21 -21 5 -23 9 -13 21 17 19 37 19 45 0z m1790 -21 c-3 -3
-12 -4 -19 -1 -8 3 -5 6 6 6 11 1 17 -2 13 -5z m2660 -20 c0 -17 -3 -17 -28
-4 -26 15 -24 28 4 23 13 -3 24 -11 24 -19z m-2714 9 c-7 -2 -21 -2 -30 0 -10
3 -4 5 12 5 17 0 24 -2 18 -5z m-1823 -8 c0 -2 -13 -11 -30 -20 -38 -19 -40
-11 -2 9 31 17 32 18 32 11z m4220 -5 c13 -8 13 -11 -2 -26 -9 -9 -24 -14 -32
-11 -14 6 -14 10 -4 27 14 23 17 23 38 10z m188 -12 c-6 -18 -25 -20 -31 -3
-5 10 0 15 14 15 12 0 19 -5 17 -12z m253 -15 c7 -10 9 -15 5 -11 -5 4 -15 3
-23 -3 -10 -9 -13 -7 -13 10 0 26 13 27 31 4z m-4744 -14 c-9 -6 -15 -14 -12
-20 11 -17 -6 -31 -21 -18 -19 16 -18 24 9 37 28 14 48 15 24 1z m118 1 c-4
-7 2 -9 19 -4 50 12 61 10 64 -13 3 -18 -2 -23 -17 -23 -12 0 -21 6 -21 13 0
6 -9 1 -20 -13 -11 -14 -18 -18 -15 -9 8 21 -20 43 -46 36 -12 -3 -18 -2 -13
3 5 4 18 10 29 13 11 3 21 5 23 6 2 0 0 -4 -3 -9z m4654 -21 c-16 -10 -23 -4
-14 10 3 6 11 8 17 5 6 -4 5 -9 -3 -15z m-5143 -4 c5 -12 10 -13 20 -4 10 8
13 6 11 -10 0 -11 -5 -17 -10 -14 -4 3 -11 -5 -14 -17 -5 -20 -7 -19 -25 10
-18 30 -17 50 3 50 5 0 12 -7 15 -15z m5514 -5 c0 -5 -7 -10 -15 -10 -8 0 -15
5 -15 10 0 6 7 10 15 10 8 0 15 -4 15 -10z m-5054 -57 c-3 -14 -10 -31 -16
-37 -8 -8 -9 -6 -5 5 4 10 1 20 -4 24 -6 3 -9 11 -6 16 3 5 0 6 -8 3 -8 -3
-18 -1 -21 4 -3 5 10 9 30 10 32 1 34 0 30 -25z m4714 -8 c0 -8 -6 -15 -14
-15 -17 0 -28 14 -19 24 12 12 33 6 33 -9z m-4665 -25 c0 -22 -39 -19 -43 3
-3 15 1 18 20 15 12 -2 23 -10 23 -18z m-510 -70 c-2 -28 -10 -33 -25 -14 -12
13 -11 17 1 25 21 13 26 11 24 -11z m444 -26 c5 3 11 -6 14 -20 3 -20 -1 -27
-20 -35 -32 -12 -33 -12 -33 6 0 9 -10 15 -22 16 -20 1 -20 2 -4 6 29 8 43 25
39 48 -3 16 -2 16 7 -3 5 -13 14 -21 19 -18z m4749 23 c14 -17 0 -39 -20 -32
-10 4 -14 14 -11 26 6 22 16 24 31 6z m102 -17 c0 -5 -4 -10 -10 -10 -5 0 -10
5 -10 10 0 6 5 10 10 10 6 0 10 -4 10 -10z m-4999 -103 c-8 -8 -11 -6 -11 10
0 12 -7 28 -15 36 -8 8 -11 17 -8 21 4 4 16 -7 26 -24 15 -23 17 -34 8 -43z
m-266 14 c3 -5 1 -12 -5 -16 -5 -3 -10 1 -10 9 0 18 6 21 15 7z m-49 -38 c-10
-10 -19 5 -10 18 6 11 8 11 12 0 2 -7 1 -15 -2 -18z m332 -21 c4 -14 -23 -26
-42 -19 -9 4 -12 14 -9 26 4 15 10 18 26 12 12 -4 23 -13 25 -19z m-318 -78
c0 -8 -5 -12 -10 -9 -6 4 -8 11 -5 16 9 14 15 11 15 -7z m58 -11 c2 -7 -1 -13
-7 -13 -6 0 -11 5 -11 11 0 5 -4 8 -9 4 -5 -3 -12 -1 -15 3 -3 5 4 9 16 8 12
0 23 -7 26 -13z m113 0 c13 -16 12 -17 -3 -4 -17 13 -22 21 -14 21 2 0 10 -8
17 -17z m99 -58 c10 -12 10 -15 -4 -15 -9 0 -16 7 -16 15 0 8 2 15 4 15 2 0 9
-7 16 -15z m-240 -16 c0 -5 -4 -9 -10 -9 -5 0 -10 7 -10 16 0 8 5 12 10 9 6
-3 10 -10 10 -16z m236 -35 c-5 -14 -9 -15 -19 -5 -9 9 -9 14 3 21 18 11 24 6
16 -16z m-76 -4 c0 -5 -2 -10 -4 -10 -3 0 -8 5 -11 10 -3 6 -1 10 4 10 6 0 11
-4 11 -10z m-126 -88 c-1 -2 -12 -1 -23 3 -12 4 -18 12 -14 21 5 13 8 12 23
-3 10 -10 16 -20 14 -21z m204 -22 c3 -7 0 -10 -7 -6 -6 4 -11 2 -11 -4 0 -6
-5 -8 -12 -4 -9 6 -9 9 0 12 7 2 9 8 6 14 -4 6 -1 9 6 6 8 -2 16 -10 18 -18z
m-68 -5 c0 -8 -4 -15 -10 -15 -5 0 -10 7 -10 15 0 8 5 15 10 15 6 0 10 -7 10
-15z m115 -65 c3 -5 1 -10 -4 -10 -6 0 -11 5 -11 10 0 6 2 10 4 10 3 0 8 -4
11 -10z m-85 -28 c0 -13 -12 -22 -22 -16 -10 6 -1 24 13 24 5 0 9 -4 9 -8z
m2080 -182 c0 -11 -4 -20 -9 -20 -14 0 -23 18 -16 30 10 17 25 11 25 -10z"/>
<path d="M3565 4090 c-16 -16 -25 -30 -19 -29 8 0 60 59 52 59 -3 0 -17 -13
-33 -30z"/>
<path d="M3494 4024 c-21 -19 -24 -24 -9 -19 17 7 38 11 68 14 4 1 7 6 7 12 0
5 -4 7 -10 4 -5 -3 -10 -1 -10 4 0 18 -15 13 -46 -15z"/>
<path d="M3355 3939 l-50 -31 45 7 c42 6 81 25 51 25 -11 0 -11 3 -1 15 17 21
12 19 -45 -16z m25 -3 c0 -2 -7 -7 -16 -10 -8 -3 -12 -2 -9 4 6 10 25 14 25 6z"/>
<path d="M3055 3930 c3 -5 0 -7 -8 -4 -10 3 -17 -4 -21 -23 -4 -15 -9 -36 -12
-45 -4 -14 1 -18 21 -18 30 0 41 20 25 49 -6 12 -7 21 -1 21 5 0 14 -14 20
-31 10 -30 11 -30 38 -16 16 8 42 20 58 27 l30 12 -60 19 c-67 21 -99 24 -90
9z"/>
<path d="M3125 3850 c-13 -6 -15 -9 -5 -9 8 0 22 4 30 9 18 12 2 12 -25 0z"/>
<path d="M2912 3835 c11 -11 50 -14 71 -5 17 7 12 9 -27 9 -27 1 -47 -1 -44
-4z"/>
<path d="M2988 3799 c-10 -10 -13 -21 -9 -24 5 -2 11 2 14 10 4 8 15 12 27 10
13 -3 18 0 14 7 -5 8 -1 9 10 5 9 -4 15 -3 12 2 -9 15 -50 9 -68 -10z"/>
<path d="M2655 4130 c-3 -5 -1 -10 4 -10 6 0 11 5 11 10 0 6 -2 10 -4 10 -3 0
-8 -4 -11 -10z"/>
<path d="M2606 4122 c-3 -5 1 -9 9 -9 8 0 12 4 9 9 -3 4 -7 8 -9 8 -2 0 -6 -4
-9 -8z"/>
<path d="M2564 4112 c4 -7 1 -12 -8 -12 -8 0 -17 -4 -20 -9 -4 -5 3 -7 14 -4
26 7 34 19 19 29 -8 4 -9 3 -5 -4z"/>
<path d="M2444 4069 c-2 -3 -16 -4 -30 -1 -19 3 -25 1 -20 -6 5 -8 28 -10 69
-6 75 7 81 11 27 16 -23 2 -43 1 -46 -3z"/>
<path d="M2545 4069 c-11 -17 1 -21 15 -4 8 9 8 15 2 15 -6 0 -14 -5 -17 -11z"/>
<path d="M1845 3970 c-3 -6 1 -7 9 -4 18 7 21 14 7 14 -6 0 -13 -4 -16 -10z"/>
<path d="M2484 3993 c10 -11 36 -12 36 -2 0 5 -10 9 -22 9 -12 0 -18 -3 -14
-7z"/>
<path d="M2466 3961 c-4 -5 3 -7 14 -4 23 6 26 13 6 13 -8 0 -17 -4 -20 -9z"/>
<path d="M2521 3894 c-7 -26 -9 -49 -5 -53 4 -3 9 0 11 7 4 10 8 9 17 -4 10
-13 15 -14 21 -4 5 9 4 11 -3 6 -7 -4 -12 -1 -12 8 0 8 5 18 12 22 7 4 8 3 4
-4 -4 -7 -3 -12 2 -12 6 0 12 7 16 15 3 9 0 15 -9 15 -8 0 -12 6 -9 14 3 8 0
17 -7 22 -8 5 -10 3 -5 -7 4 -8 1 -6 -7 4 -13 16 -15 14 -26 -29z"/>
<path d="M2482 3831 c-10 -6 -10 -10 2 -20 16 -13 29 -2 18 16 -4 7 -13 8 -20
4z"/>
<path d="M2245 3820 c-3 -6 1 -7 9 -4 18 7 21 14 7 14 -6 0 -13 -4 -16 -10z"/>
<path d="M4225 3920 c4 -6 11 -8 16 -5 14 9 11 15 -7 15 -8 0 -12 -5 -9 -10z"/>
<path d="M4120 3861 c0 -5 -8 -12 -17 -16 -10 -3 -31 -17 -48 -31 l-30 -26 45
23 c33 16 41 18 32 6 -8 -9 -22 -19 -33 -22 -11 -4 -17 -11 -14 -16 4 -5 -5
-5 -20 1 -17 7 -24 7 -20 0 3 -6 1 -10 -4 -10 -6 0 -11 -5 -11 -11 0 -5 5 -7
11 -4 6 4 23 8 37 9 15 1 38 6 52 10 15 4 20 4 12 -2 -9 -6 -6 -12 13 -20 15
-7 24 -9 22 -5 -3 5 -1 17 3 28 7 19 8 18 20 -7 7 -16 16 -28 21 -28 4 0 -5
22 -19 49 -19 34 -31 47 -42 43 -13 -5 -13 -3 -2 10 9 11 10 18 2 23 -5 3 -10
2 -10 -4z m30 -51 c0 -5 -4 -10 -10 -10 -5 0 -10 5 -10 10 0 6 5 10 10 10 6 0
10 -4 10 -10z"/>
<path d="M4167 3840 c3 -11 9 -17 15 -14 5 3 4 12 -3 20 -16 19 -18 18 -12 -6z"/>
<path d="M4048 3743 c-34 -13 -43 -33 -17 -33 6 0 8 4 5 9 -10 15 33 20 45 5
6 -8 15 -12 19 -9 5 3 11 2 14 -3 8 -13 -26 -11 -44 2 -10 7 -9 3 3 -10 9 -11
14 -23 11 -27 -3 -3 3 -3 14 0 12 3 28 13 37 23 15 16 14 19 -11 39 -31 25
-28 24 -76 4z"/>
<path d="M4110 3659 c0 -5 5 -7 10 -4 6 3 10 8 10 11 0 2 -4 4 -10 4 -5 0 -10
-5 -10 -11z"/>
<path d="M3498 3803 c7 -3 16 -2 19 1 4 3 -2 6 -13 5 -11 0 -14 -3 -6 -6z"/>
<path d="M4331 3706 c-8 -10 -9 -16 -1 -21 5 -3 13 1 16 10 9 22 -1 29 -15 11z"/>
<path d="M4290 3640 c-9 -16 -8 -18 5 -14 8 4 15 12 15 20 0 20 -7 17 -20 -6z"/>
<path d="M4086 3571 c-3 -4 -18 -6 -32 -3 -17 3 -31 0 -38 -9 -6 -8 -16 -15
-21 -16 -6 -1 -21 -6 -35 -11 -24 -9 -24 -9 17 -30 l42 -22 40 27 c29 18 41
34 41 50 0 24 -5 29 -14 14z m-39 -47 c-3 -3 -12 -4 -19 -1 -8 3 -5 6 6 6 11
1 17 -2 13 -5z"/>
<path d="M4120 3515 c0 -8 4 -15 10 -15 5 0 7 7 4 15 -4 8 -8 15 -10 15 -2 0
-4 -7 -4 -15z"/>
<path d="M4092 3494 c-7 -15 -17 -22 -24 -18 -7 4 -8 3 -4 -5 4 -6 12 -9 17
-6 5 4 9 1 9 -4 0 -6 11 -11 25 -11 26 0 26 14 0 52 -11 16 -13 16 -23 -8z
m28 -14 c0 -5 -5 -10 -11 -10 -5 0 -7 5 -4 10 3 6 8 10 11 10 2 0 4 -4 4 -10z"/>
<path d="M3902 3498 c-7 -7 -8 -17 -1 -30 6 -10 6 -18 0 -18 -5 0 -12 7 -15
16 -3 8 -10 12 -16 9 -6 -4 -8 -10 -5 -15 3 -5 1 -11 -5 -15 -5 -3 -10 -12
-10 -18 0 -7 5 -4 11 6 5 9 15 17 20 17 6 0 7 -4 4 -10 -3 -5 -1 -10 5 -10 6
0 8 -5 5 -10 -4 -6 -12 -7 -18 -4 -7 4 -4 -1 5 -11 13 -14 20 -16 31 -6 8 6
22 8 32 5 15 -6 16 -4 7 13 -6 11 -18 25 -26 33 -9 7 -16 17 -16 22 0 6 7 4
17 -3 15 -13 15 -12 3 11 -7 14 -14 26 -15 27 -1 2 -6 -2 -13 -9z m29 -65 c10
-12 10 -14 1 -9 -7 4 -15 1 -18 -8 -3 -9 -10 -16 -16 -16 -5 0 -6 6 -1 13 4 6
8 15 9 20 4 22 7 22 25 0z"/>
<path d="M3942 3490 c9 -14 22 -24 30 -22 10 3 11 1 1 -9 -7 -7 -13 -16 -13
-19 0 -9 49 -5 57 5 5 4 2 4 -6 0 -11 -6 -13 -4 -8 8 5 14 -8 26 -24 23 -4 0
-17 8 -30 19 l-23 20 16 -25z"/>
<path d="M4317 3442 c-34 -16 -55 -31 -50 -36 5 -5 1 -7 -10 -3 -13 5 -17 2
-15 -11 3 -18 17 -32 32 -32 4 0 6 7 2 15 -6 17 9 21 19 5 3 -6 -1 -17 -9 -26
-20 -20 -20 -21 2 -19 28 2 39 12 71 69 45 78 45 78 -42 38z"/>
<path d="M4403 3457 c-23 -29 -66 -118 -60 -124 4 -3 7 -1 7 5 0 6 7 9 15 6 8
-4 13 -10 10 -14 -3 -4 2 -10 10 -13 9 -4 12 -1 8 9 -3 7 0 14 5 14 6 0 12 -8
14 -17 3 -10 5 13 6 51 1 37 5 72 7 77 9 13 -12 20 -22 6z"/>
<path d="M4108 3433 c7 -3 16 -2 19 1 4 3 -2 6 -13 5 -11 0 -14 -3 -6 -6z"/>
<path d="M4616 3422 c-3 -5 1 -9 9 -9 8 0 12 4 9 9 -3 4 -7 8 -9 8 -2 0 -6 -4
-9 -8z"/>
<path d="M4190 3384 c-14 -8 -17 -13 -7 -10 11 3 27 -2 39 -14 24 -22 38 -26
38 -10 0 6 -7 10 -15 10 -9 0 -15 7 -13 16 4 23 -12 26 -42 8z"/>
<path d="M3955 3379 c-4 -6 -5 -12 -2 -15 2 -3 7 2 10 11 7 17 1 20 -8 4z"/>
<path d="M3809 3333 c-13 -16 -12 -17 4 -4 16 13 21 21 13 21 -2 0 -10 -8 -17
-17z"/>
<path d="M3771 3284 c0 -11 3 -14 6 -6 3 7 2 16 -1 19 -3 4 -6 -2 -5 -13z"/>
<path d="M4320 3291 c0 -5 7 -11 15 -15 8 -3 15 -1 15 3 0 5 -7 11 -15 15 -8
3 -15 1 -15 -3z"/>
<path d="M4567 3272 c8 -5 -6 -15 -40 -27 -37 -14 -46 -20 -32 -23 11 -3 31
-12 45 -22 54 -37 61 -34 54 18 -7 54 -11 62 -27 62 -9 0 -9 -2 0 -8z"/>
<path d="M3605 3220 c-4 -12 -5 -24 -2 -27 3 -2 8 5 12 17 4 12 5 24 2 27 -3
2 -8 -5 -12 -17z"/>
<path d="M3649 3222 c-20 -21 -36 -68 -20 -58 6 4 11 13 11 21 0 7 9 17 20 20
11 4 17 11 14 17 -5 7 -2 8 6 3 10 -6 8 -12 -8 -26 -26 -21 -28 -31 -4 -22 15
6 15 5 3 -10 -12 -15 -12 -17 3 -11 10 4 15 13 12 20 -3 8 3 20 14 26 11 7 20
20 20 28 0 12 -2 12 -9 1 -6 -9 -11 -10 -15 -2 -10 15 -28 13 -47 -7z"/>
<path d="M4460 3215 c0 -3 14 -11 30 -16 17 -6 30 -16 30 -22 1 -27 16 -36 45
-28 l30 8 -25 8 c-14 4 -27 11 -30 16 -7 10 -80 41 -80 34z"/>
<path d="M4798 3213 c7 -3 16 -2 19 1 4 3 -2 6 -13 5 -11 0 -14 -3 -6 -6z"/>
<path d="M3714 3194 c-18 -14 -18 -14 6 -3 31 14 36 19 24 19 -6 0 -19 -7 -30
-16z"/>
<path d="M4763 3191 c-3 -12 -11 -17 -19 -14 -10 4 -12 0 -8 -11 6 -15 9 -15
30 5 13 12 21 26 18 30 -8 14 -15 10 -21 -10z"/>
<path d="M3463 2914 c7 -8 -53 -80 -64 -77 -4 1 -15 -7 -25 -19 -11 -12 -13
-18 -6 -14 18 11 15 -9 -5 -25 -14 -12 -16 -12 -8 0 5 9 4 12 -2 8 -6 -4 -10
-18 -10 -32 0 -25 0 -25 16 -8 10 10 43 53 75 96 42 57 52 77 40 77 -10 0 -14
-3 -11 -6z"/>
<path d="M2565 3610 c-3 -5 1 -10 10 -10 9 0 13 5 10 10 -3 6 -8 10 -10 10 -2
0 -7 -4 -10 -10z"/>
<path d="M3615 3540 c-3 -5 -1 -10 4 -10 6 0 11 5 11 10 0 6 -2 10 -4 10 -3 0
-8 -4 -11 -10z"/>
<path d="M2390 3426 c0 -2 8 -10 18 -17 15 -13 16 -12 3 4 -13 16 -21 21 -21
13z"/>
<path d="M2354 3397 c-8 -9 -7 -16 1 -24 10 -9 15 -6 24 13 12 27 -5 34 -25
11z"/>
<path d="M2416 3372 c-3 -5 1 -9 9 -9 8 0 12 4 9 9 -3 4 -7 8 -9 8 -2 0 -6 -4
-9 -8z"/>
<path d="M2370 3350 c-9 -6 -10 -10 -3 -10 6 0 15 5 18 10 8 12 4 12 -15 0z"/>
<path d="M2085 3250 c-3 -5 -1 -11 5 -15 6 -4 8 -11 4 -16 -3 -6 -12 -3 -20 8
-13 17 -14 17 -7 -1 5 -15 3 -17 -8 -11 -12 8 -12 6 0 -8 13 -17 15 -16 38 4
12 13 23 26 23 30 0 11 -29 19 -35 9z"/>
<path d="M5071 2984 c0 -11 3 -14 6 -6 3 7 2 16 -1 19 -3 4 -6 -2 -5 -13z"/>
<path d="M5101 2944 c12 -15 61 -44 74 -44 3 0 3 5 -1 11 -5 8 1 10 19 7 15
-3 24 -1 21 4 -3 5 -18 8 -32 7 -15 -2 -42 4 -61 14 -28 14 -31 14 -20 1z"/>
<path d="M5225 2810 c3 -5 0 -10 -9 -10 -14 0 -14 -5 -1 -47 8 -25 55 -38 55
-16 0 22 -31 83 -42 83 -5 0 -6 -4 -3 -10z"/>
<path d="M5195 2690 c-8 -16 -20 -41 -25 -55 l-10 -25 30 15 c32 17 41 31 13
21 -10 -4 -1 7 20 24 38 32 41 50 7 50 -11 0 -26 -12 -35 -30z"/>
<path d="M4904 2657 c3 -10 6 -24 6 -30 0 -7 10 -23 21 -37 l20 -25 -15 37
c-8 21 -20 46 -26 55 -11 17 -11 17 -6 0z"/>
<path d="M5026 2601 c-19 -21 -19 -21 3 -21 12 0 20 4 17 9 -4 5 3 7 13 4 11
-3 28 0 38 6 14 8 14 10 3 11 -8 0 -24 3 -35 6 -13 3 -27 -2 -39 -15z"/>
<path d="M1849 2765 c18 -8 36 -15 40 -15 13 1 -45 29 -59 29 -8 0 0 -6 19
-14z"/>
<path d="M2055 2670 c-3 -5 -1 -10 4 -10 6 0 11 5 11 10 0 6 -2 10 -4 10 -3 0
-8 -4 -11 -10z"/>
<path d="M2195 2650 c-3 -5 -2 -10 4 -10 5 0 13 5 16 10 3 6 2 10 -4 10 -5 0
-13 -4 -16 -10z"/>
<path d="M3315 2430 c3 -5 8 -10 11 -10 2 0 4 5 4 10 0 6 -5 10 -11 10 -5 0
-7 -4 -4 -10z"/>
<path d="M3330 2406 c0 -2 7 -9 15 -16 13 -11 14 -10 9 4 -5 14 -24 23 -24 12z"/>
<path d="M5882 2410 c0 -14 2 -19 5 -12 2 6 2 18 0 25 -3 6 -5 1 -5 -13z"/>
<path d="M4980 2225 c-7 -9 -8 -15 -2 -15 5 0 12 7 16 15 3 8 4 15 2 15 -2 0
-9 -7 -16 -15z"/>
<path d="M4937 2214 c-8 -8 1 -24 14 -24 5 0 9 7 9 15 0 15 -12 20 -23 9z"/>
<path d="M6800 2420 c0 -5 5 -10 11 -10 5 0 7 5 4 10 -3 6 -8 10 -11 10 -2 0
-4 -4 -4 -10z"/>
<path d="M6421 2243 c24 -29 48 -53 52 -53 5 0 5 5 2 10 -3 6 -2 10 2 10 5 0
9 9 10 20 1 11 -2 18 -7 15 -10 -6 -57 13 -84 34 -11 9 0 -8 25 -36z"/>
<path d="M2870 1930 c8 -5 20 -10 25 -10 6 0 3 5 -5 10 -8 5 -19 10 -25 10 -5
0 -3 -5 5 -10z"/>
<path d="M4592 1531 c-28 -58 -47 -107 -42 -109 4 -2 5 -12 2 -24 -4 -17 -2
-19 14 -10 10 6 30 22 44 37 l25 27 -27 -13 c-15 -6 -25 -15 -23 -20 3 -4 0
-11 -6 -15 -7 -4 -9 -3 -5 4 3 5 1 12 -6 14 -7 3 7 15 29 28 23 13 42 26 41
29 0 3 0 8 2 11 1 3 4 16 6 30 3 13 9 29 14 34 6 6 10 26 10 46 0 66 -26 43
-78 -69z"/>
<path d="M4696 1603 c-6 -14 -5 -15 5 -6 7 7 10 15 7 18 -3 3 -9 -2 -12 -12z"/>
<path d="M4468 1287 c-30 -42 -16 -43 28 -3 34 31 36 35 15 33 -12 -1 -32 -14
-43 -30z"/>
<path d="M4220 1260 c6 -11 13 -20 16 -20 2 0 0 9 -6 20 -6 11 -13 20 -16 20
-2 0 0 -9 6 -20z"/>
<path d="M4375 1229 c4 -6 1 -10 -6 -8 -8 1 -21 1 -29 0 -13 -1 -13 -2 0 -11
22 -14 56 -12 69 4 9 11 9 16 0 22 -8 4 -9 3 -5 -4 4 -7 2 -12 -3 -12 -6 0
-11 5 -11 10 0 6 -5 10 -11 10 -5 0 -7 -5 -4 -11z"/>
<path d="M4969 1691 c-31 -32 -38 -54 -14 -45 8 4 15 3 15 0 0 -4 -11 -11 -26
-16 -16 -6 -33 -27 -46 -57 -18 -41 -31 -103 -22 -103 2 0 24 10 49 22 47 23
51 33 47 101 -1 16 2 26 6 23 8 -5 30 50 38 92 4 21 -16 13 -47 -17z m-2 -117
c-3 -3 -12 -4 -19 -1 -8 3 -5 6 6 6 11 1 17 -2 13 -5z m-40 -10 c-3 -3 -12 -4
-19 -1 -8 3 -5 6 6 6 11 1 17 -2 13 -5z"/>
<path d="M4918 1478 c-21 -12 -35 -25 -32 -30 3 -4 0 -8 -7 -8 -7 0 -9 -3 -5
-7 4 -4 16 3 26 17 16 21 21 23 32 11 8 -8 8 -11 1 -7 -6 3 -14 2 -18 -4 -7
-12 15 -13 31 -2 12 8 26 52 16 51 -4 0 -24 -10 -44 -21z"/>
</g>
</svg>
